<?xml version="1.0" encoding="UTF-8"?>
<svg xmlns="http://www.w3.org/2000/svg" xmlns:xlink="http://www.w3.org/1999/xlink" width="300pt" height="299.999988pt" viewBox="0 0 300 299.999988" version="1.2">
<g id="surface1">
<path style=" stroke:none;fill-rule:nonzero;fill:rgb(95.689392%,92.939758%,45.098877%);fill-opacity:1;" d="M 180.3125 138.550781 C 180.3125 138.550781 171.15625 160.203125 168.238281 172.660156 C 164.71875 187.675781 166.503906 198.003906 166.503906 198.003906 L 178.867188 198.757812 C 178.867188 198.757812 187.984375 183.996094 193.558594 168.628906 C 199.128906 153.292969 194.9375 136.953125 194.9375 136.953125 L 180.3125 138.550781 "/>
<path style=" stroke:none;fill-rule:nonzero;fill:rgb(95.689392%,92.939758%,45.098877%);fill-opacity:1;" d="M 186.828125 143.195312 C 186.828125 143.195312 196.738281 192.914062 202.546875 204.644531 L 215.371094 199.941406 C 215.371094 199.941406 216.679688 152.242188 201.113281 139.289062 C 201.113281 139.289062 188.675781 136.539062 186.828125 143.195312 "/>
<path style=" stroke:none;fill-rule:nonzero;fill:rgb(95.689392%,92.939758%,45.098877%);fill-opacity:1;" d="M 214.898438 198.925781 C 214.898438 198.925781 222.066406 206.046875 223.703125 217.105469 C 225.625 230.085938 233.148438 262.300781 233.148438 262.300781 L 227.496094 263.875 L 202.097656 203.683594 L 214.898438 198.925781 "/>
<path style=" stroke:none;fill-rule:nonzero;fill:rgb(95.689392%,92.939758%,45.098877%);fill-opacity:1;" d="M 178.867188 198.757812 C 178.867188 198.757812 180.867188 207.929688 180.1875 219.09375 C 179.507812 230.253906 170.476562 264.128906 170.476562 264.128906 L 164.488281 263.765625 L 166.480469 198.003906 L 178.867188 198.757812 "/>
<path style=" stroke:none;fill-rule:nonzero;fill:rgb(66.268921%,69.018555%,85.099792%);fill-opacity:1;" d="M 164.488281 263.765625 C 164.488281 263.765625 159.917969 269.433594 154.660156 270.347656 C 149.402344 271.269531 148.675781 270.972656 148.675781 270.972656 C 148.675781 270.972656 146.429688 273.3125 146.371094 274.300781 C 146.308594 275.285156 154.363281 277.265625 155.757812 276.730469 C 157.152344 276.199219 160.589844 274.675781 162.410156 275.28125 C 164.230469 275.886719 170.496094 274.65625 171.21875 272.96875 C 171.941406 271.277344 170.476562 264.128906 170.476562 264.128906 L 164.488281 263.765625 "/>
<path style=" stroke:none;fill-rule:nonzero;fill:rgb(66.268921%,69.018555%,85.099792%);fill-opacity:1;" d="M 227.496094 263.875 C 227.496094 263.875 225.609375 270.902344 221.167969 273.871094 C 216.734375 276.835938 215.953125 276.863281 215.953125 276.863281 C 215.953125 276.863281 214.84375 279.910156 215.191406 280.839844 C 215.53125 281.765625 223.699219 280.3125 224.757812 279.261719 C 225.816406 278.210938 228.339844 275.425781 230.253906 275.242188 C 232.164062 275.0625 237.394531 271.40625 237.375 269.5625 C 237.351562 267.726562 233.121094 261.785156 233.121094 261.785156 L 227.496094 263.875 "/>
<path style=" stroke:none;fill-rule:nonzero;fill:rgb(74.899292%,38.038635%,30.979919%);fill-opacity:1;" d="M 180.027344 80.023438 C 178.625 80.367188 177.21875 80.695312 175.820312 81.042969 C 168.585938 82.851562 169.839844 89.429688 170.367188 95.164062 C 170.742188 99.269531 171.113281 103.378906 171.484375 107.488281 C 171.574219 108.453125 171.664062 109.421875 171.753906 110.390625 C 171.753906 110.390625 176.3125 117.078125 178.15625 116.402344 C 180 115.722656 180.027344 80.023438 180.027344 80.023438 "/>
<path style=" stroke:none;fill-rule:nonzero;fill:rgb(74.899292%,38.038635%,30.979919%);fill-opacity:1;" d="M 171.753906 110.390625 L 157.605469 138.839844 C 157.605469 138.839844 158.542969 142.011719 160.65625 140.871094 C 162.765625 139.738281 178.90625 118.988281 179.082031 115.023438 C 179.25 111.0625 171.753906 110.390625 171.753906 110.390625 "/>
<path style=" stroke:none;fill-rule:nonzero;fill:rgb(74.899292%,38.038635%,30.979919%);fill-opacity:1;" d="M 158.070312 137.902344 C 158.070312 137.902344 152.003906 144.578125 152.527344 145.53125 C 153.050781 146.480469 157.550781 150.757812 157.550781 150.757812 C 157.550781 150.757812 161.824219 143.273438 162.0625 139.578125 L 158.070312 137.902344 "/>
<path style=" stroke:none;fill-rule:nonzero;fill:rgb(74.899292%,38.038635%,30.979919%);fill-opacity:1;" d="M 152.917969 144.34375 C 152.917969 144.34375 149.683594 148.257812 148.554688 149.1875 C 147.425781 150.121094 146.878906 151.109375 146.878906 151.109375 C 146.878906 151.109375 146.894531 152.132812 147.417969 151.753906 C 147.9375 151.375 154.132812 147.023438 154.296875 145.644531 C 154.460938 144.265625 152.917969 144.34375 152.917969 144.34375 "/>
<path style=" stroke:none;fill-rule:nonzero;fill:rgb(74.899292%,38.038635%,30.979919%);fill-opacity:1;" d="M 157.925781 141.03125 C 157.925781 141.03125 152.78125 142.90625 151.445312 143.742188 C 150.101562 144.578125 148.890625 144.761719 148.890625 144.761719 C 148.890625 144.761719 147.828125 144.3125 148.390625 143.910156 C 148.953125 143.5 156.058594 138.109375 157.550781 138.503906 C 159.046875 138.902344 157.925781 141.03125 157.925781 141.03125 "/>
<path style=" stroke:none;fill-rule:nonzero;fill:rgb(74.899292%,38.038635%,30.979919%);fill-opacity:1;" d="M 153.820312 145.636719 C 153.820312 145.636719 151.292969 149.832031 150.164062 150.761719 C 149.035156 151.695312 148.488281 152.683594 148.488281 152.683594 C 148.488281 152.683594 148.507812 153.707031 149.023438 153.328125 C 149.542969 152.949219 155.636719 148.46875 155.800781 147.09375 C 155.964844 145.714844 153.820312 145.636719 153.820312 145.636719 "/>
<path style=" stroke:none;fill-rule:nonzero;fill:rgb(74.899292%,38.038635%,30.979919%);fill-opacity:1;" d="M 155.515625 147.5625 C 155.515625 147.5625 152.585938 151.6875 151.53125 152.699219 C 150.472656 153.707031 150.007812 154.730469 150.007812 154.730469 C 150.007812 154.730469 150.105469 155.742188 150.59375 155.328125 C 151.085938 154.910156 156.953125 149.980469 157 148.601562 C 157.054688 147.226562 155.515625 147.5625 155.515625 147.5625 "/>
<path style=" stroke:none;fill-rule:nonzero;fill:rgb(74.899292%,38.038635%,30.979919%);fill-opacity:1;" d="M 156.902344 148.9375 C 156.902344 148.9375 154.691406 152.804688 153.84375 153.777344 C 153 154.757812 152.679688 155.691406 152.679688 155.691406 C 152.679688 155.691406 152.867188 156.570312 153.261719 156.160156 C 153.660156 155.753906 158.074219 150.757812 157.992188 149.554688 C 157.910156 148.347656 156.902344 148.9375 156.902344 148.9375 "/>
<path style=" stroke:none;fill-rule:nonzero;fill:rgb(21.958923%,14.118958%,22.349548%);fill-opacity:1;" d="M 178.730469 128.363281 C 178.996094 136 178.933594 144.285156 177.402344 144.265625 L 207.066406 146.417969 C 207.066406 146.417969 200.375 103.734375 209.851562 79.128906 C 209.851562 79.128906 193.910156 74.789062 193.027344 73.757812 C 193.027344 73.757812 176.683594 80.648438 173.734375 81.679688 C 173.25 81.847656 177.800781 112.96875 178.035156 115.960938 C 178.117188 116.96875 178.523438 122.472656 178.730469 128.363281 "/>
<path style=" stroke:none;fill-rule:nonzero;fill:rgb(21.958923%,14.118958%,22.349548%);fill-opacity:1;" d="M 176.640625 107.097656 C 176.640625 107.097656 172.464844 106.570312 170.925781 103.238281 C 170.925781 103.238281 174.96875 93.671875 175.769531 88.464844 C 175.769531 88.464844 197.210938 85.300781 198.714844 87.183594 C 200.222656 89.0625 194.757812 107.097656 194.757812 107.097656 L 176.640625 107.097656 "/>
<path style=" stroke:none;fill-rule:nonzero;fill:rgb(79.998779%,43.919373%,33.729553%);fill-opacity:1;" d="M 201.453125 91.90625 L 215.277344 115.164062 C 215.277344 115.164062 222.738281 118.300781 223.921875 116.730469 C 225.097656 115.15625 209.851562 79.128906 209.851562 79.128906 L 201.453125 91.90625 "/>
<path style=" stroke:none;fill-rule:nonzero;fill:rgb(74.899292%,38.038635%,30.979919%);fill-opacity:1;" d="M 183.316406 71.441406 C 183.339844 72.199219 183.355469 72.957031 183.382812 73.714844 C 183.429688 75.269531 183.636719 76.839844 183.328125 78.378906 C 183.101562 79.511719 182.9375 80.667969 182.753906 81.808594 L 182.605469 82.710938 C 182.605469 82.710938 187.941406 85.675781 191.5 81.761719 C 195.058594 77.847656 195.175781 75.359375 195.175781 75.359375 L 192.210938 65.753906 L 183.316406 71.441406 "/>
<path style=" stroke:none;fill-rule:nonzero;fill:rgb(79.998779%,43.919373%,33.729553%);fill-opacity:1;" d="M 215.277344 115.164062 L 218.878906 146.742188 C 218.878906 146.742188 221.390625 148.890625 222.542969 146.785156 C 223.699219 144.683594 225.957031 118.496094 223.945312 115.074219 C 221.933594 111.65625 215.277344 115.164062 215.277344 115.164062 "/>
<path style=" stroke:none;fill-rule:nonzero;fill:rgb(79.998779%,43.919373%,33.729553%);fill-opacity:1;" d="M 218.761719 145.699219 C 218.761719 145.699219 217.296875 154.601562 218.253906 155.113281 C 219.210938 155.628906 225.316406 156.769531 225.316406 156.769531 C 225.316406 156.769531 224.832031 148.160156 223.023438 144.933594 L 218.761719 145.699219 "/>
<path style=" stroke:none;fill-rule:nonzero;fill:rgb(79.998779%,43.919373%,33.729553%);fill-opacity:1;" d="M 217.941406 153.90625 C 217.941406 153.90625 217.355469 158.945312 216.917969 160.34375 C 216.472656 161.738281 216.554688 162.867188 216.554688 162.867188 C 216.554688 162.867188 217.125 163.714844 217.355469 163.117188 C 217.585938 162.515625 220.417969 155.488281 219.804688 154.246094 C 219.191406 153.003906 217.941406 153.90625 217.941406 153.90625 "/>
<path style=" stroke:none;fill-rule:nonzero;fill:rgb(79.998779%,43.919373%,33.729553%);fill-opacity:1;" d="M 220.339844 148.398438 C 220.339844 148.398438 217.046875 152.769531 216.375 154.207031 C 215.707031 155.632812 214.785156 156.441406 214.785156 156.441406 C 214.785156 156.441406 213.652344 156.648438 213.902344 156.003906 C 214.15625 155.359375 217.179688 146.964844 218.652344 146.484375 C 220.125 146 220.339844 148.398438 220.339844 148.398438 "/>
<path style=" stroke:none;fill-rule:nonzero;fill:rgb(79.998779%,43.919373%,33.729553%);fill-opacity:1;" d="M 219.402344 154.5 C 219.402344 154.5 219.566406 159.394531 219.121094 160.789062 C 218.683594 162.1875 218.761719 163.316406 218.761719 163.316406 C 218.761719 163.316406 219.332031 164.164062 219.5625 163.5625 C 219.792969 162.964844 222.464844 155.886719 221.851562 154.640625 C 221.238281 153.398438 219.402344 154.5 219.402344 154.5 "/>
<path style=" stroke:none;fill-rule:nonzero;fill:rgb(79.998779%,43.919373%,33.729553%);fill-opacity:1;" d="M 221.871094 155.191406 C 221.871094 155.191406 221.660156 160.246094 221.320312 161.667969 C 220.980469 163.09375 221.148438 164.207031 221.148438 164.207031 C 221.148438 164.207031 221.78125 165 221.964844 164.382812 C 222.152344 163.769531 224.390625 156.441406 223.6875 155.253906 C 222.980469 154.074219 221.871094 155.191406 221.871094 155.191406 "/>
<path style=" stroke:none;fill-rule:nonzero;fill:rgb(79.998779%,43.919373%,33.729553%);fill-opacity:1;" d="M 223.785156 155.59375 C 223.785156 155.59375 224.03125 160.042969 223.847656 161.320312 C 223.671875 162.597656 223.914062 163.558594 223.914062 163.558594 C 223.914062 163.558594 224.546875 164.1875 224.65625 163.632812 C 224.769531 163.078125 225.757812 156.480469 225.035156 155.515625 C 224.304688 154.550781 223.785156 155.59375 223.785156 155.59375 "/>
<path style=" stroke:none;fill-rule:nonzero;fill:rgb(79.998779%,43.919373%,33.729553%);fill-opacity:1;" d="M 181.625 45.230469 C 191.464844 42.746094 195.910156 47.601562 195.175781 58.28125 C 195.046875 60.113281 194.589844 64.691406 193.859375 66.367188 L 186.6875 72.195312 C 186.6875 72.195312 180.027344 73.222656 178.679688 72.648438 C 177.335938 72.070312 174.582031 62.78125 174.582031 62.78125 C 174.582031 62.78125 171.933594 47.679688 181.625 45.230469 "/>
<path style=" stroke:none;fill-rule:nonzero;fill:rgb(20.779419%,16.468811%,21.958923%);fill-opacity:1;" d="M 176.203125 43.289062 C 176.203125 43.289062 170.84375 51.632812 174.25 51.261719 C 177.660156 50.890625 178.382812 46.449219 180.027344 48.757812 C 181.671875 51.0625 182.878906 51.316406 184.75 49.523438 C 186.625 47.734375 188.933594 47.984375 188.890625 50.632812 C 188.839844 53.28125 192.003906 49.441406 192.429688 52.429688 C 192.855469 55.417969 191.292969 60.375 193.199219 59.773438 C 195.105469 59.171875 195.007812 60.199219 195.007812 60.199219 C 195.007812 60.199219 198.921875 55.84375 197.640625 48.925781 C 196.363281 42.007812 185.34375 38.335938 176.203125 43.289062 "/>
<path style=" stroke:none;fill-rule:nonzero;fill:rgb(79.998779%,43.919373%,33.729553%);fill-opacity:1;" d="M 193.789062 59.863281 C 193.789062 59.863281 194.835938 55.132812 196.050781 55.511719 C 197.261719 55.890625 197.257812 56.503906 197.257812 56.503906 C 197.257812 56.503906 197.160156 60.15625 196.582031 60.542969 C 196.007812 60.925781 194.160156 62.207031 193.789062 61.851562 C 193.410156 61.5 193.789062 59.863281 193.789062 59.863281 "/>
<path style=" stroke:none;fill-rule:nonzero;fill:rgb(96.078491%,67.059326%,32.939148%);fill-opacity:1;" d="M 196.84375 60.605469 C 196.84375 61.019531 196.511719 61.355469 196.097656 61.355469 C 195.6875 61.355469 195.351562 61.019531 195.351562 60.605469 C 195.351562 60.195312 195.6875 59.863281 196.097656 59.863281 C 196.511719 59.863281 196.84375 60.195312 196.84375 60.605469 "/>
<path style=" stroke:none;fill-rule:nonzero;fill:rgb(20.779419%,16.468811%,21.958923%);fill-opacity:1;" d="M 186.375 41.054688 C 186.375 41.054688 186.453125 34.113281 192.175781 34.542969 C 197.894531 34.96875 205.058594 44.277344 196.097656 47.949219 C 196.097656 47.949219 185.5625 44.601562 186.375 41.054688 "/>
<path style=" stroke:none;fill-rule:nonzero;fill:rgb(95.689392%,59.21936%,49.798584%);fill-opacity:1;" d="M 74.511719 149.945312 C 74.511719 149.945312 73.027344 158.996094 74 159.515625 C 74.96875 160.035156 81.171875 161.195312 81.171875 161.195312 C 81.171875 161.195312 80.679688 152.449219 78.84375 149.171875 L 74.511719 149.945312 "/>
<path style=" stroke:none;fill-rule:nonzero;fill:rgb(95.689392%,59.21936%,49.798584%);fill-opacity:1;" d="M 73.679688 158.285156 C 73.679688 158.285156 73.085938 163.410156 72.636719 164.828125 C 72.1875 166.246094 72.269531 167.390625 72.269531 167.390625 C 72.269531 167.390625 72.847656 168.25 73.085938 167.644531 C 73.316406 167.039062 76.195312 159.898438 75.574219 158.632812 C 74.949219 157.363281 73.679688 158.285156 73.679688 158.285156 "/>
<path style=" stroke:none;fill-rule:nonzero;fill:rgb(95.689392%,59.21936%,49.798584%);fill-opacity:1;" d="M 76.113281 152.691406 C 76.113281 152.691406 72.765625 157.132812 72.085938 158.589844 C 71.410156 160.042969 70.472656 160.863281 70.472656 160.863281 C 70.472656 160.863281 69.316406 161.074219 69.578125 160.417969 C 69.832031 159.761719 72.90625 151.234375 74.402344 150.746094 C 75.898438 150.253906 76.113281 152.691406 76.113281 152.691406 "/>
<path style=" stroke:none;fill-rule:nonzero;fill:rgb(95.689392%,59.21936%,49.798584%);fill-opacity:1;" d="M 75.160156 158.890625 C 75.160156 158.890625 75.328125 163.863281 74.878906 165.28125 C 74.429688 166.703125 74.511719 167.847656 74.511719 167.847656 C 74.511719 167.847656 75.09375 168.707031 75.324219 168.101562 C 75.558594 167.492188 78.277344 160.300781 77.65625 159.035156 C 77.03125 157.773438 75.160156 158.890625 75.160156 158.890625 "/>
<path style=" stroke:none;fill-rule:nonzero;fill:rgb(95.689392%,59.21936%,49.798584%);fill-opacity:1;" d="M 77.667969 159.59375 C 77.667969 159.59375 77.453125 164.726562 77.109375 166.175781 C 76.765625 167.621094 76.933594 168.753906 76.933594 168.753906 C 76.933594 168.753906 77.578125 169.558594 77.769531 168.933594 C 77.953125 168.308594 80.234375 160.863281 79.515625 159.660156 C 78.796875 158.457031 77.667969 159.59375 77.667969 159.59375 "/>
<path style=" stroke:none;fill-rule:nonzero;fill:rgb(95.689392%,59.21936%,49.798584%);fill-opacity:1;" d="M 79.613281 160 C 79.613281 160 79.863281 164.519531 79.683594 165.820312 C 79.503906 167.121094 79.75 168.09375 79.75 168.09375 C 79.75 168.09375 80.386719 168.738281 80.503906 168.171875 C 80.613281 167.601562 81.621094 160.90625 80.882812 159.921875 C 80.148438 158.941406 79.613281 160 79.613281 160 "/>
<path style=" stroke:none;fill-rule:nonzero;fill:rgb(95.689392%,59.21936%,49.798584%);fill-opacity:1;" d="M 16.480469 139.25 C 16.480469 139.25 11.875 147.171875 10.792969 146.957031 C 9.710938 146.742188 4.183594 143.695312 4.183594 143.695312 C 4.183594 143.695312 10.128906 137.253906 13.632812 135.894531 L 16.480469 139.25 "/>
<path style=" stroke:none;fill-rule:nonzero;fill:rgb(95.689392%,59.21936%,49.798584%);fill-opacity:1;" d="M 11.824219 146.210938 C 11.824219 146.210938 9.023438 150.546875 8.464844 151.925781 C 7.910156 153.304688 7.121094 154.136719 7.121094 154.136719 C 7.121094 154.136719 6.125 154.433594 6.332031 153.8125 C 6.539062 153.195312 8.855469 145.859375 10.140625 145.277344 C 11.425781 144.695312 11.824219 146.210938 11.824219 146.210938 "/>
<path style=" stroke:none;fill-rule:nonzero;fill:rgb(95.689392%,59.21936%,49.798584%);fill-opacity:1;" d="M 13.5 140.347656 C 13.5 140.347656 13.257812 145.902344 12.859375 147.460938 C 12.460938 149.011719 12.660156 150.242188 12.660156 150.242188 C 12.660156 150.242188 13.417969 151.136719 13.632812 150.46875 C 13.851562 149.800781 16.902344 141.261719 16.058594 139.933594 C 15.214844 138.601562 13.5 140.347656 13.5 140.347656 "/>
<path style=" stroke:none;fill-rule:nonzero;fill:rgb(95.689392%,59.21936%,49.798584%);fill-opacity:1;" d="M 10.292969 145.738281 C 10.292969 145.738281 7.003906 149.46875 6.449219 150.851562 C 5.890625 152.230469 5.101562 153.0625 5.101562 153.0625 C 5.101562 153.0625 4.105469 153.359375 4.3125 152.742188 C 4.519531 152.121094 6.992188 144.84375 8.277344 144.261719 C 9.5625 143.683594 10.292969 145.738281 10.292969 145.738281 "/>
<path style=" stroke:none;fill-rule:nonzero;fill:rgb(95.689392%,59.21936%,49.798584%);fill-opacity:1;" d="M 7.910156 144.6875 C 7.910156 144.6875 4.8125 148.785156 4.15625 150.121094 C 3.503906 151.457031 2.652344 152.222656 2.652344 152.222656 C 2.652344 152.222656 1.644531 152.433594 1.894531 151.835938 C 2.148438 151.230469 5.125 144.035156 6.445312 143.5625 C 7.765625 143.089844 7.910156 144.6875 7.910156 144.6875 "/>
<path style=" stroke:none;fill-rule:nonzero;fill:rgb(95.689392%,59.21936%,49.798584%);fill-opacity:1;" d="M 6.148438 143.765625 C 6.148438 143.765625 3.082031 147.09375 2.398438 148.214844 C 1.710938 149.328125 0.902344 149.925781 0.902344 149.925781 C 0.902344 149.925781 0 150.015625 0.273438 149.503906 C 0.546875 148.996094 4.023438 143.183594 5.21875 142.894531 C 6.414062 142.609375 6.148438 143.765625 6.148438 143.765625 "/>
<path style=" stroke:none;fill-rule:nonzero;fill:rgb(12.939453%,9.799194%,12.939453%);fill-opacity:1;" d="M 58.433594 40.332031 C 58.433594 40.332031 53.425781 28.996094 41.929688 30.328125 C 30.433594 31.664062 26.894531 44.910156 28.828125 53.414062 C 30.765625 61.914062 32.933594 62.832031 32.933594 62.832031 L 34.550781 62.371094 L 33.992188 58.070312 L 36.371094 61.863281 L 54.183594 56.839844 L 52.515625 45.386719 L 55.800781 42.578125 L 54.5 40.484375 L 56.617188 41.882812 L 58.433594 40.332031 "/>
<path style=" stroke:none;fill-rule:nonzero;fill:rgb(95.689392%,59.21936%,49.798584%);fill-opacity:1;" d="M 35.5625 75.996094 C 36.542969 78.234375 36.21875 82.035156 36.121094 83.988281 C 35.859375 89.453125 35.449219 94.949219 33.914062 100.238281 C 33.308594 102.324219 32.28125 104.859375 30.511719 106.261719 C 24.023438 111.402344 24.699219 103.578125 24.699219 103.578125 L 27.175781 78.753906 C 27.304688 77.453125 29.699219 75.445312 30.742188 74.921875 C 33.441406 73.5625 34.851562 74.359375 35.5625 75.996094 "/>
<path style=" stroke:none;fill-rule:nonzero;fill:rgb(95.689392%,59.21936%,49.798584%);fill-opacity:1;" d="M 27.613281 103.546875 C 27.613281 103.546875 20.75 108.472656 19.175781 116.644531 C 17.605469 124.820312 12.632812 133.589844 12.632812 133.589844 L 15.902344 136.605469 C 15.902344 136.605469 31.789062 108.957031 32.113281 104.433594 C 32.4375 99.90625 27.613281 103.546875 27.613281 103.546875 "/>
<path style=" stroke:none;fill-rule:nonzero;fill:rgb(74.899292%,84.709167%,89.019775%);fill-opacity:1;" d="M 9.605469 137.195312 L 16.042969 143.441406 L 33.269531 111.796875 C 33.269531 111.796875 42.195312 77.757812 34.078125 72.039062 C 29.550781 69.375 24.714844 83.046875 24.808594 92.699219 C 24.898438 102.351562 21.175781 110.964844 21.175781 110.964844 L 9.605469 137.195312 "/>
<path style=" stroke:none;fill-rule:nonzero;fill:rgb(9.01947%,9.01947%,12.939453%);fill-opacity:1;" d="M 78.5 267.472656 C 78.5 267.472656 81.640625 277.800781 79.984375 278.417969 C 78.332031 279.042969 60.152344 284.207031 55.195312 278.417969 C 53.125 274.90625 65.390625 274.90625 67.730469 272.429688 C 70.070312 269.949219 71.449219 267.472656 71.449219 267.472656 L 78.5 267.472656 "/>
<path style=" stroke:none;fill-rule:nonzero;fill:rgb(9.01947%,9.01947%,12.939453%);fill-opacity:1;" d="M 41.949219 265.457031 C 41.949219 265.457031 43.023438 274.132812 41.632812 274.65625 C 40.246094 275.175781 24.972656 279.515625 20.804688 274.65625 C 19.070312 271.703125 29.371094 271.703125 31.335938 269.621094 C 33.304688 267.539062 34.460938 265.457031 34.460938 265.457031 L 41.949219 265.457031 "/>
<path style=" stroke:none;fill-rule:nonzero;fill:rgb(9.799194%,9.799194%,14.118958%);fill-opacity:1;" d="M 33.59375 132.039062 C 33.59375 132.039062 30.4375 253.304688 32.386719 266.378906 L 43.875 268.464844 L 57.277344 133.53125 L 33.59375 132.039062 "/>
<path style=" stroke:none;fill-rule:nonzero;fill:rgb(13.328552%,14.118958%,20.388794%);fill-opacity:1;" d="M 38.652344 135.066406 C 38.652344 135.066406 62.78125 257.035156 67.714844 269.300781 L 80.867188 270.445312 L 62.035156 131.007812 L 38.652344 135.066406 "/>
<path style=" stroke:none;fill-rule:nonzero;fill:rgb(83.529663%,87.449646%,89.408875%);fill-opacity:1;" d="M 47.855469 60.121094 L 50.046875 61.898438 L 53.691406 67.523438 L 44.972656 68.003906 L 47.855469 60.121094 "/>
<path style=" stroke:none;fill-rule:nonzero;fill:rgb(83.529663%,87.449646%,89.408875%);fill-opacity:1;" d="M 52.117188 66.40625 C 42.738281 64.007812 28.417969 69.296875 28.839844 80.53125 C 29.148438 88.664062 33.613281 135.578125 33.613281 135.578125 L 62.683594 135.578125 C 61.308594 124.042969 64.214844 74.789062 64.214844 74.75 C 64.433594 71.53125 56.199219 67.867188 53.804688 66.941406 C 53.261719 66.734375 52.703125 66.554688 52.117188 66.40625 "/>
<path style=" stroke:none;fill-rule:nonzero;fill:rgb(83.529663%,87.449646%,89.408875%);fill-opacity:1;" d="M 45.296875 66.082031 L 43.300781 60.867188 L 32.390625 68.273438 L 31.707031 75.554688 L 45.296875 66.082031 "/>
<path style=" stroke:none;fill-rule:nonzero;fill:rgb(95.289612%,52.159119%,45.878601%);fill-opacity:1;" d="M 46.617188 52.972656 L 49.292969 68.414062 C 49.292969 68.414062 43.53125 76.859375 37.144531 75.414062 L 34.976562 52.394531 L 46.617188 52.972656 "/>
<path style=" stroke:none;fill-rule:nonzero;fill:rgb(75.689697%,12.159729%,22.749329%);fill-opacity:1;" d="M 36.027344 80.144531 L 32.183594 110.960938 L 36 115.417969 L 41.929688 106.105469 L 39.597656 80.144531 L 36.027344 80.144531 "/>
<path style=" stroke:none;fill-rule:nonzero;fill:rgb(93.328857%,15.689087%,29.019165%);fill-opacity:1;" d="M 36.269531 74.070312 L 39.984375 73.847656 L 40.382812 80.5 C 40.382812 80.5 37.347656 81.488281 35.902344 80.558594 C 34.460938 79.632812 36.269531 74.070312 36.269531 74.070312 "/>
<path style=" stroke:none;fill-rule:nonzero;fill:rgb(83.529663%,87.449646%,89.408875%);fill-opacity:1;" d="M 51.769531 67.523438 L 49.777344 62.3125 L 38.867188 69.714844 L 38.183594 76.996094 L 51.769531 67.523438 "/>
<path style=" stroke:none;fill-rule:nonzero;fill:rgb(83.529663%,87.449646%,89.408875%);fill-opacity:1;" d="M 53.691406 67.523438 L 50.046875 61.898438 L 38.867188 69.714844 L 40.101562 76.996094 L 53.691406 67.523438 "/>
<path style=" stroke:none;fill-rule:nonzero;fill:rgb(95.689392%,59.21936%,49.798584%);fill-opacity:1;" d="M 41.570312 62.3125 L 51.277344 60.867188 C 51.277344 60.867188 54.894531 47.347656 51.691406 40.425781 C 48.484375 33.503906 35.128906 32.792969 33.492188 42.140625 C 31.855469 51.492188 34.324219 55.617188 34.324219 55.617188 L 41.570312 62.3125 "/>
<path style=" stroke:none;fill-rule:nonzero;fill:rgb(95.689392%,59.21936%,49.798584%);fill-opacity:1;" d="M 33.726562 51.910156 C 33.726562 51.910156 30.101562 51.453125 30.714844 47.253906 C 31.328125 43.054688 33.667969 47.253906 33.667969 47.253906 L 33.726562 51.910156 "/>
<path style=" stroke:none;fill-rule:nonzero;fill:rgb(83.529663%,87.449646%,89.408875%);fill-opacity:1;" d="M 56.792969 71.421875 C 56.792969 71.421875 50.78125 80.671875 55.519531 88.472656 C 60.253906 96.28125 65.320312 109.40625 65.320312 109.40625 L 72.503906 149.960938 L 80.867188 150.976562 L 76.058594 103.421875 C 76.058594 103.421875 66.921875 60.539062 56.792969 71.421875 "/>
<path style=" stroke:none;fill-rule:nonzero;fill:rgb(12.939453%,9.799194%,12.939453%);fill-opacity:1;" d="M 54.984375 38.148438 C 55.550781 37.878906 56.125 37.640625 56.703125 37.433594 L 56.652344 37.363281 C 56.296875 37.527344 55.757812 37.777344 54.984375 38.148438 "/>
<path style=" stroke:none;fill-rule:nonzero;fill:rgb(12.939453%,9.799194%,12.939453%);fill-opacity:1;" d="M 49.292969 34.769531 C 49.292969 34.769531 52.226562 38.082031 53.015625 40.332031 L 42.972656 42.328125 L 40.382812 37.753906 L 40.382812 43.394531 L 32.933594 46.191406 C 32.933594 46.191406 31.339844 36.710938 38.867188 33.582031 C 46.390625 30.453125 49.292969 34.769531 49.292969 34.769531 "/>
<path style=" stroke:none;fill-rule:nonzero;fill:rgb(20.779419%,16.468811%,21.958923%);fill-opacity:1;" d="M 268.65625 75.5 C 268.65625 75.5 279.265625 64.21875 279.652344 59.015625 C 280.035156 53.8125 268.332031 47.917969 265.984375 47.667969 C 263.636719 47.410156 255.925781 43.824219 252.476562 51.890625 C 249.035156 59.964844 252.523438 67.109375 252.523438 67.109375 C 252.523438 67.109375 260.996094 80.277344 268.65625 75.5 "/>
<path style=" stroke:none;fill-rule:nonzero;fill:rgb(70.588684%,36.079407%,33.329773%);fill-opacity:1;" d="M 280.789062 202.105469 C 280.789062 202.105469 285.148438 211.09375 285.148438 222.230469 C 285.148438 233.363281 276.367188 267.574219 276.367188 267.574219 L 271.148438 267.082031 L 268.300781 202.105469 L 280.789062 202.105469 "/>
<path style=" stroke:none;fill-rule:nonzero;fill:rgb(70.588684%,36.079407%,33.329773%);fill-opacity:1;" d="M 254.390625 202.105469 C 254.390625 202.105469 258.253906 211.09375 258.253906 222.230469 C 258.253906 233.363281 250.464844 267.574219 250.464844 267.574219 L 245.109375 267.574219 L 243.3125 202.105469 L 254.390625 202.105469 "/>
<path style=" stroke:none;fill-rule:nonzero;fill:rgb(98.429871%,79.219055%,42.349243%);fill-opacity:1;" d="M 252.402344 142.1875 C 252.402344 142.1875 245.421875 164.253906 243.5 176.8125 C 241.183594 191.949219 243.335938 202.105469 243.335938 202.105469 L 254.390625 202.105469 C 254.390625 202.105469 261.707031 186.882812 265.84375 171.269531 C 269.964844 155.6875 265.34375 139.707031 265.34375 139.707031 L 252.402344 142.1875 "/>
<path style=" stroke:none;fill-rule:nonzero;fill:rgb(98.429871%,79.219055%,42.349243%);fill-opacity:1;" d="M 265.214844 141.296875 C 265.214844 141.296875 265.621094 191.765625 268.761719 204.320312 L 280.789062 202.105469 C 280.789062 202.105469 289.882812 155.695312 278.394531 140.132812 C 278.394531 140.132812 267.953125 135.128906 265.214844 141.296875 "/>
<path style=" stroke:none;fill-rule:nonzero;fill:rgb(98.429871%,79.219055%,42.349243%);fill-opacity:1;" d="M 280.363281 250.839844 C 282.683594 240.503906 285.148438 228.128906 285.148438 222.230469 C 285.148438 211.09375 280.789062 202.105469 280.789062 202.105469 L 268.300781 202.105469 L 270.4375 250.839844 L 280.363281 250.839844 "/>
<path style=" stroke:none;fill-rule:nonzero;fill:rgb(98.429871%,79.219055%,42.349243%);fill-opacity:1;" d="M 254.011719 250.839844 C 256.070312 240.503906 258.253906 228.128906 258.253906 222.230469 C 258.253906 211.09375 254.390625 202.105469 254.390625 202.105469 L 243.3125 202.105469 L 244.652344 250.839844 L 254.011719 250.839844 "/>
<path style=" stroke:none;fill-rule:nonzero;fill:rgb(91.369629%,87.059021%,76.078796%);fill-opacity:1;" d="M 245.109375 267.574219 C 245.109375 267.574219 241.347656 273.484375 236.714844 274.710938 C 232.078125 275.941406 231.421875 275.699219 231.421875 275.699219 C 231.421875 275.699219 229.542969 278.160156 229.542969 279.144531 C 229.542969 280.128906 236.824219 281.605469 238.035156 280.992188 C 239.253906 280.375 242.230469 278.652344 243.886719 279.144531 C 245.539062 279.636719 251.058594 278.035156 251.605469 276.3125 C 252.160156 274.589844 250.464844 267.574219 250.464844 267.574219 L 245.109375 267.574219 "/>
<path style=" stroke:none;fill-rule:nonzero;fill:rgb(91.369629%,87.059021%,76.078796%);fill-opacity:1;" d="M 271.148438 267.082031 C 271.148438 267.082031 267.382812 272.988281 262.75 274.222656 C 258.117188 275.449219 257.457031 275.207031 257.457031 275.207031 C 257.457031 275.207031 255.582031 277.667969 255.582031 278.652344 C 255.582031 279.632812 262.859375 281.113281 264.074219 280.496094 C 265.289062 279.878906 268.269531 278.160156 269.921875 278.652344 C 271.578125 279.140625 277.097656 277.542969 277.644531 275.820312 C 278.199219 274.097656 276.503906 267.082031 276.503906 267.082031 L 271.148438 267.082031 "/>
<path style=" stroke:none;fill-rule:nonzero;fill:rgb(70.588684%,36.079407%,33.329773%);fill-opacity:1;" d="M 251.367188 101.527344 L 235.75 118.695312 C 235.75 118.695312 228.476562 121.257812 228.261719 119.316406 C 228.050781 117.371094 249.589844 85.625 249.589844 85.625 L 251.367188 101.527344 "/>
<path style=" stroke:none;fill-rule:nonzero;fill:rgb(70.588684%,36.079407%,33.329773%);fill-opacity:1;" d="M 228.851562 121.230469 L 217.074219 95.761719 C 217.074219 95.761719 217.722656 92.511719 219.378906 93.234375 C 221.035156 93.957031 238.484375 113.628906 237.082031 117.230469 C 235.890625 120.300781 228.851562 121.230469 228.851562 121.230469 "/>
<path style=" stroke:none;fill-rule:nonzero;fill:rgb(70.588684%,36.079407%,33.329773%);fill-opacity:1;" d="M 217.078125 95.949219 C 217.078125 95.949219 211.90625 92.257812 212.167969 91.4375 C 212.417969 90.613281 215.214844 86.53125 215.214844 86.53125 C 215.214844 86.53125 219.492188 91.34375 220.238281 94.140625 L 217.078125 95.949219 "/>
<path style=" stroke:none;fill-rule:nonzero;fill:rgb(70.588684%,36.079407%,33.329773%);fill-opacity:1;" d="M 212.644531 92.28125 C 212.644531 92.28125 209.574219 89.839844 208.570312 89.324219 C 207.5625 88.808594 207 88.140625 207 88.140625 C 207 88.140625 206.855469 87.355469 207.308594 87.550781 C 207.761719 87.75 213.167969 90.007812 213.5 91.039062 C 213.839844 92.070312 212.644531 92.28125 212.644531 92.28125 "/>
<path style=" stroke:none;fill-rule:nonzero;fill:rgb(70.588684%,36.079407%,33.329773%);fill-opacity:1;" d="M 216.980469 93.945312 C 216.980469 93.945312 212.761719 93.40625 211.609375 93 C 210.457031 92.59375 209.5 92.667969 209.5 92.667969 C 209.5 92.667969 208.75 93.199219 209.246094 93.410156 C 209.738281 93.621094 215.996094 96.519531 217.078125 95.949219 C 218.160156 95.382812 216.980469 93.945312 216.980469 93.945312 "/>
<path style=" stroke:none;fill-rule:nonzero;fill:rgb(70.588684%,36.079407%,33.329773%);fill-opacity:1;" d="M 213.136719 91.125 C 213.136719 91.125 210.566406 88.34375 209.558594 87.828125 C 208.554688 87.316406 207.992188 86.648438 207.992188 86.648438 C 207.992188 86.648438 207.847656 85.859375 208.296875 86.058594 C 208.753906 86.257812 214.097656 88.632812 214.433594 89.660156 C 214.765625 90.691406 213.136719 91.125 213.136719 91.125 "/>
<path style=" stroke:none;fill-rule:nonzero;fill:rgb(70.588684%,36.079407%,33.329773%);fill-opacity:1;" d="M 214.144531 89.351562 C 214.144531 89.351562 211.277344 86.695312 210.3125 86.105469 C 209.347656 85.511719 208.835938 84.8125 208.835938 84.8125 C 208.835938 84.8125 208.761719 84.019531 209.195312 84.246094 C 209.636719 84.480469 214.875 87.242188 215.125 88.289062 C 215.371094 89.335938 214.144531 89.351562 214.144531 89.351562 "/>
<path style=" stroke:none;fill-rule:nonzero;fill:rgb(70.588684%,36.079407%,33.329773%);fill-opacity:1;" d="M 214.992188 88.046875 C 214.992188 88.046875 212.714844 85.464844 211.917969 84.867188 C 211.121094 84.261719 210.738281 83.597656 210.738281 83.597656 C 210.738281 83.597656 210.746094 82.898438 211.113281 83.140625 C 211.476562 83.382812 215.617188 86.441406 215.734375 87.382812 C 215.855469 88.328125 214.992188 88.046875 214.992188 88.046875 "/>
<path style=" stroke:none;fill-rule:nonzero;fill:rgb(99.21875%,87.449646%,78.819275%);fill-opacity:1;" d="M 253.183594 132.304688 C 253.222656 133.0625 253.363281 141.976562 253.046875 142 L 278.621094 140.183594 C 278.621094 140.183594 274.5625 107.675781 284.046875 83.070312 C 284.046875 83.070312 268.105469 78.730469 267.21875 77.699219 C 267.21875 77.699219 250.871094 84.589844 247.925781 85.625 C 247.925781 85.625 252.261719 114.425781 253.183594 132.304688 "/>
<path style=" stroke:none;fill-rule:nonzero;fill:rgb(99.21875%,87.449646%,78.819275%);fill-opacity:1;" d="M 250.832031 111.042969 C 250.832031 111.042969 246.65625 110.515625 245.121094 107.179688 C 245.121094 107.179688 249.160156 97.617188 249.957031 92.410156 C 249.957031 92.410156 271.398438 89.246094 272.90625 91.125 C 274.414062 93.007812 268.949219 111.042969 268.949219 111.042969 L 250.832031 111.042969 "/>
<path style=" stroke:none;fill-rule:nonzero;fill:rgb(70.588684%,36.079407%,33.329773%);fill-opacity:1;" d="M 270.960938 94.597656 L 279.203125 124.175781 C 279.203125 124.175781 286.453125 129.820312 288.210938 128.449219 C 289.96875 127.074219 283.953125 83.089844 283.953125 83.089844 L 270.960938 94.597656 "/>
<path style=" stroke:none;fill-rule:nonzero;fill:rgb(63.919067%,32.548523%,29.798889%);fill-opacity:1;" d="M 258.550781 75.386719 C 258.574219 76.144531 258.589844 76.902344 258.613281 77.660156 C 258.664062 79.214844 258.867188 80.78125 258.5625 82.324219 C 258.335938 83.457031 258.171875 84.609375 257.984375 85.75 L 257.835938 86.652344 C 257.839844 86.652344 263.175781 89.617188 266.734375 85.703125 C 270.292969 81.792969 270.410156 79.300781 270.410156 79.300781 L 267.445312 69.695312 L 258.550781 75.386719 "/>
<path style=" stroke:none;fill-rule:nonzero;fill:rgb(70.588684%,36.079407%,33.329773%);fill-opacity:1;" d="M 271.519531 64.574219 C 272.867188 55.453125 265.71875 49.683594 257.308594 54.71875 C 255.421875 55.851562 254.109375 57.1875 253.226562 58.640625 L 252.476562 67.636719 C 252.476562 67.636719 253.035156 78.886719 259.726562 78.261719 C 259.726562 78.261719 269.644531 77.289062 271.519531 64.574219 "/>
<path style=" stroke:none;fill-rule:nonzero;fill:rgb(20.779419%,16.468811%,21.958923%);fill-opacity:1;" d="M 264.8125 50.714844 C 264.8125 50.714844 262.464844 57.121094 266.417969 59.5 C 270.371094 61.875 274 61.019531 274 61.019531 C 274 61.019531 274.941406 50.539062 264.8125 50.714844 "/>
<path style=" stroke:none;fill-rule:nonzero;fill:rgb(70.588684%,36.079407%,33.329773%);fill-opacity:1;" d="M 279.207031 124.292969 L 293.511719 157.398438 C 293.511719 157.398438 296.945312 158.90625 297.507812 156.238281 C 298.066406 153.578125 291.90625 124.390625 288.59375 121.339844 C 285.285156 118.289062 279.207031 124.292969 279.207031 124.292969 "/>
<path style=" stroke:none;fill-rule:nonzero;fill:rgb(70.588684%,36.079407%,33.329773%);fill-opacity:1;" d="M 292.757812 155.277344 C 292.757812 155.277344 291.34375 163.570312 292.320312 164.101562 C 293.296875 164.628906 299.53125 165.820312 299.53125 165.820312 C 299.53125 165.820312 299.125 157.324219 297.289062 154.011719 L 292.757812 155.277344 "/>
<path style=" stroke:none;fill-rule:nonzero;fill:rgb(70.588684%,36.079407%,33.329773%);fill-opacity:1;" d="M 292 162.863281 C 292 162.863281 291.386719 168.015625 290.929688 169.441406 C 290.472656 170.863281 290.550781 172.015625 290.550781 172.015625 C 290.550781 172.015625 291.132812 172.886719 291.371094 172.277344 C 291.605469 171.667969 294.53125 164.492188 293.910156 163.21875 C 293.285156 161.945312 292 162.863281 292 162.863281 "/>
<path style=" stroke:none;fill-rule:nonzero;fill:rgb(70.588684%,36.079407%,33.329773%);fill-opacity:1;" d="M 294.472656 157.246094 C 294.472656 157.246094 291.089844 161.703125 290.398438 163.160156 C 289.714844 164.621094 288.769531 165.445312 288.769531 165.445312 C 288.769531 165.445312 287.609375 165.652344 287.867188 164.992188 C 288.128906 164.335938 291.25 155.765625 292.757812 155.277344 C 294.265625 154.796875 294.472656 157.246094 294.472656 157.246094 "/>
<path style=" stroke:none;fill-rule:nonzero;fill:rgb(70.588684%,36.079407%,33.329773%);fill-opacity:1;" d="M 293.492188 163.480469 C 293.492188 163.480469 293.640625 168.484375 293.183594 169.90625 C 292.726562 171.332031 292.808594 172.484375 292.808594 172.484375 C 292.808594 172.484375 293.386719 173.351562 293.621094 172.742188 C 293.859375 172.132812 296.621094 164.90625 296 163.632812 C 295.378906 162.359375 293.492188 163.480469 293.492188 163.480469 "/>
<path style=" stroke:none;fill-rule:nonzero;fill:rgb(70.588684%,36.079407%,33.329773%);fill-opacity:1;" d="M 296.015625 164.191406 C 296.015625 164.191406 295.777344 169.359375 295.425781 170.8125 C 295.074219 172.265625 295.242188 173.40625 295.242188 173.40625 C 295.242188 173.40625 295.886719 174.21875 296.074219 173.59375 C 296.269531 172.964844 298.589844 165.480469 297.871094 164.269531 C 297.152344 163.054688 296.015625 164.191406 296.015625 164.191406 "/>
<path style=" stroke:none;fill-rule:nonzero;fill:rgb(70.588684%,36.079407%,33.329773%);fill-opacity:1;" d="M 297.96875 164.613281 C 297.96875 164.613281 298.203125 169.15625 298.015625 170.464844 C 297.828125 171.773438 298.074219 172.75 298.074219 172.75 C 298.074219 172.75 298.714844 173.402344 298.832031 172.832031 C 298.945312 172.265625 299.988281 165.527344 299.25 164.539062 C 298.507812 163.550781 297.96875 164.613281 297.96875 164.613281 "/>
<path style=" stroke:none;fill-rule:nonzero;fill:rgb(20.779419%,16.468811%,21.958923%);fill-opacity:1;" d="M 255.910156 50.714844 C 255.910156 50.714844 257.152344 55.160156 260.945312 56.421875 C 264.742188 57.679688 269.914062 53.566406 269.914062 53.566406 C 269.914062 53.566406 258.898438 48.078125 255.910156 50.714844 "/>
<path style=" stroke:none;fill-rule:nonzero;fill:rgb(20.779419%,16.468811%,21.958923%);fill-opacity:1;" d="M 269.070312 58.042969 C 269.070312 58.042969 266.585938 60.585938 267.269531 61.167969 C 267.953125 61.757812 270.085938 62.65625 269.914062 63.507812 C 269.742188 64.363281 268.222656 64.148438 268.535156 64.789062 C 268.535156 64.789062 268.847656 64.105469 269.914062 64.488281 C 270.980469 64.875 271.109375 62.035156 270.257812 61.597656 C 269.402344 61.160156 271.367188 58.808594 271.367188 58.808594 L 269.070312 58.042969 "/>
<path style=" stroke:none;fill-rule:nonzero;fill:rgb(20.779419%,16.468811%,21.958923%);fill-opacity:1;" d="M 258.699219 53.582031 C 258.699219 53.582031 256.414062 54.996094 256.679688 55.988281 C 256.945312 56.980469 257.6875 56.699219 257.679688 57.851562 C 257.671875 59.003906 256.246094 58.925781 256.347656 59.878906 C 256.347656 59.878906 256.085938 59.378906 256.339844 58.828125 C 256.601562 58.277344 257.441406 57.644531 256.433594 56.980469 C 255.421875 56.308594 254.675781 54.574219 256.03125 53.429688 C 257.386719 52.289062 258.699219 53.582031 258.699219 53.582031 "/>
<path style=" stroke:none;fill-rule:nonzero;fill:rgb(12.939453%,9.799194%,12.939453%);fill-opacity:1;" d="M 127.039062 26.542969 C 127.039062 26.542969 130.3125 21.921875 128.03125 20.167969 C 125.753906 18.410156 121.566406 19.058594 120.210938 17.4375 C 118.855469 15.804688 116.773438 16.328125 115.210938 17.4375 C 113.648438 18.539062 110.890625 15.871094 108.785156 18.539062 C 107.824219 19.761719 106.628906 20.847656 105.785156 22.160156 C 104.851562 23.625 105.222656 24.953125 105.789062 26.472656 C 106.339844 27.953125 106.695312 29.511719 106.910156 31.070312 C 107.261719 33.601562 106.261719 36.03125 105.972656 38.515625 C 105.726562 40.589844 105.578125 42.984375 106.519531 44.925781 C 106.96875 45.839844 107.742188 46.527344 108.785156 46.664062 C 113.386719 47.246094 126.03125 43.054688 126.03125 43.054688 L 127.039062 26.542969 "/>
<path style=" stroke:none;fill-rule:nonzero;fill:rgb(9.01947%,9.01947%,12.939453%);fill-opacity:1;" d="M 97.148438 264.332031 C 97.148438 264.332031 91.808594 271.457031 90.234375 272.503906 C 88.664062 273.554688 84.472656 275.648438 84.472656 275.648438 C 84.472656 275.648438 82.691406 279.730469 83.109375 280.148438 C 83.53125 280.570312 96.101562 282.457031 98.40625 279.523438 C 100.710938 276.589844 101.863281 274.910156 101.863281 274.910156 C 101.863281 274.910156 103.746094 273.34375 105.214844 273.238281 C 106.679688 273.132812 105.84375 263.601562 105.84375 263.601562 L 97.148438 264.332031 "/>
<path style=" stroke:none;fill-rule:nonzero;fill:rgb(9.01947%,9.01947%,12.939453%);fill-opacity:1;" d="M 138.382812 263.292969 C 138.382812 263.292969 143.726562 270.414062 145.296875 271.460938 C 146.871094 272.511719 151.0625 274.601562 151.0625 274.601562 C 151.0625 274.601562 152.839844 278.691406 152.421875 279.109375 C 152.003906 279.527344 139.433594 281.414062 137.128906 278.484375 C 134.824219 275.550781 133.671875 273.875 133.671875 273.875 C 133.671875 273.875 131.785156 272.296875 130.316406 272.195312 C 128.851562 272.09375 129.691406 262.558594 129.691406 262.558594 L 138.382812 263.292969 "/>
<path style=" stroke:none;fill-rule:nonzero;fill:rgb(58.428955%,64.709473%,61.569214%);fill-opacity:1;" d="M 116.058594 53.082031 C 116.058594 53.082031 84.863281 49.667969 85.371094 72.355469 L 98.265625 79.917969 C 98.265625 79.917969 115.734375 67.378906 116.058594 53.082031 "/>
<path style=" stroke:none;fill-rule:nonzero;fill:rgb(47.44873%,49.798584%,52.938843%);fill-opacity:1;" d="M 120.210938 53.082031 C 120.210938 53.082031 149.773438 46.167969 149.773438 71.519531 L 136.835938 76.949219 C 136.835938 76.949219 120.539062 67.378906 120.210938 53.082031 "/>
<path style=" stroke:none;fill-rule:nonzero;fill:rgb(17.649841%,15.689087%,25.099182%);fill-opacity:1;" d="M 107.417969 264.753906 L 118.273438 157.882812 L 118.273438 130.648438 L 96.011719 141.582031 L 96.339844 264.753906 L 107.417969 264.753906 "/>
<path style=" stroke:none;fill-rule:nonzero;fill:rgb(17.649841%,15.689087%,25.099182%);fill-opacity:1;" d="M 128.242188 264.753906 L 117.804688 156.640625 L 117.804688 130.648438 L 139.449219 133.996094 L 141.296875 264.753906 L 128.242188 264.753906 "/>
<path style=" stroke:none;fill-rule:nonzero;fill:rgb(58.428955%,64.709473%,61.569214%);fill-opacity:1;" d="M 94.511719 148.820312 C 94.511719 148.820312 99.308594 105.644531 98.058594 93.789062 C 96.804688 81.933594 99.308594 56.738281 115.164062 53.277344 C 115.164062 53.277344 138.53125 46.367188 139.367188 87.859375 C 139.367188 87.859375 141.234375 132.90625 141.65625 146.242188 L 94.511719 148.820312 "/>
<path style=" stroke:none;fill-rule:nonzero;fill:rgb(47.44873%,49.798584%,52.938843%);fill-opacity:1;" d="M 139.367188 87.859375 C 138.699219 54.691406 123.640625 52.457031 117.621094 52.894531 L 117.449219 147.566406 L 141.65625 146.242188 C 141.234375 132.90625 139.367188 87.859375 139.367188 87.859375 "/>
<path style=" stroke:none;fill-rule:nonzero;fill:rgb(17.649841%,15.689087%,25.099182%);fill-opacity:1;" d="M 130.375 52.410156 C 130.375 52.410156 124.195312 51.714844 117.039062 51.710938 C 109.886719 51.8125 103.710938 52.578125 103.710938 52.578125 C 103.710938 52.578125 110.695312 62.351562 108.875 71.628906 C 107.050781 80.90625 117.140625 97.210938 117.140625 97.210938 L 117.328125 96.757812 L 117.523438 97.203125 C 117.523438 97.203125 127.402344 80.773438 125.460938 71.523438 C 123.523438 62.273438 130.375 52.410156 130.375 52.410156 "/>
<path style=" stroke:none;fill-rule:nonzero;fill:rgb(56.469727%,25.878906%,23.919678%);fill-opacity:1;" d="M 119.117188 63.832031 C 119.117188 63.832031 125.707031 60.34375 126.046875 55.625 C 126.382812 50.910156 125.367188 43.054688 125.367188 43.054688 L 109.40625 43.054688 C 109.40625 43.054688 108.011719 54.960938 109.40625 58.570312 C 110.800781 62.1875 115.59375 64.082031 119.117188 63.832031 "/>
<path style=" stroke:none;fill-rule:nonzero;fill:rgb(74.119568%,76.078796%,70.588684%);fill-opacity:1;" d="M 109.46875 52.046875 L 117.449219 99.046875 L 101.691406 77.859375 L 106.382812 74.457031 L 97.777344 56.738281 C 97.777344 56.738281 100.824219 50.066406 109.46875 52.046875 "/>
<path style=" stroke:none;fill-rule:nonzero;fill:rgb(74.119568%,76.078796%,70.588684%);fill-opacity:1;" d="M 125.023438 52.046875 L 117.046875 99.046875 L 132.804688 77.859375 L 128.113281 74.457031 L 136.714844 56.738281 C 136.714844 56.738281 133.671875 50.066406 125.023438 52.046875 "/>
<path style=" stroke:none;fill-rule:nonzero;fill:rgb(58.428955%,64.709473%,61.569214%);fill-opacity:1;" d="M 85.441406 71.640625 C 85.441406 71.640625 82.054688 101.691406 91.683594 106.632812 C 101.316406 111.574219 102.269531 79.917969 102.269531 79.917969 L 85.441406 71.640625 "/>
<path style=" stroke:none;fill-rule:nonzero;fill:rgb(58.428955%,64.709473%,61.569214%);fill-opacity:1;" d="M 132.464844 86.105469 C 124.75 90.15625 111 95.632812 93.414062 95.300781 L 93.414062 107.144531 C 93.414062 107.144531 122.839844 106.199219 135.121094 93.707031 C 134.003906 91.261719 133.109375 88.71875 132.464844 86.105469 "/>
<path style=" stroke:none;fill-rule:nonzero;fill:rgb(39.99939%,43.528748%,47.44873%);fill-opacity:1;" d="M 114.460938 97.402344 C 112.742188 96.589844 111.375 95.328125 110.359375 93.816406 C 107.058594 94.464844 103.53125 94.945312 99.777344 95.167969 C 101.894531 98.507812 103.566406 102.140625 104.6875 105.992188 C 110.316406 105.125 117.234375 103.628906 123.480469 101.050781 C 120.433594 100.046875 117.441406 98.8125 114.460938 97.402344 "/>
<path style=" stroke:none;fill-rule:nonzero;fill:rgb(47.44873%,49.798584%,52.938843%);fill-opacity:1;" d="M 149.410156 68.464844 C 149.410156 68.464844 154.109375 101.691406 144.472656 106.632812 C 134.84375 111.574219 137.035156 69.992188 137.035156 69.992188 L 149.410156 68.464844 "/>
<path style=" stroke:none;fill-rule:nonzero;fill:rgb(39.99939%,43.528748%,47.44873%);fill-opacity:1;" d="M 137.714844 95.976562 L 139.515625 95.976562 C 139.53125 95.597656 139.542969 95.21875 139.5625 94.835938 C 139.746094 90.699219 139.296875 86.609375 139.246094 82.476562 C 139.210938 80.082031 139.894531 77.832031 141.089844 75.894531 C 140.949219 75.820312 140.804688 75.742188 140.664062 75.671875 C 137.84375 74.160156 134.96875 72.824219 132.078125 71.496094 C 131.804688 71.515625 131.535156 71.539062 131.253906 71.539062 C 130.746094 71.539062 130.238281 71.496094 129.738281 71.4375 C 133.453125 74.953125 136.835938 76.949219 136.835938 76.949219 C 136.773438 82.304688 136.882812 89.804688 137.714844 95.976562 "/>
<path style=" stroke:none;fill-rule:nonzero;fill:rgb(47.44873%,49.798584%,52.938843%);fill-opacity:1;" d="M 142.753906 107.144531 C 142.753906 107.144531 108.246094 106.039062 98.367188 90.359375 L 96.796875 81.898438 C 96.796875 81.898438 115.007812 95.828125 142.753906 95.300781 L 142.753906 107.144531 "/>
<path style=" stroke:none;fill-rule:nonzero;fill:rgb(39.99939%,43.528748%,47.44873%);fill-opacity:1;" d="M 105.597656 88.109375 C 110.386719 90.128906 115.105469 92.320312 119.890625 94.367188 L 119.921875 94.375 C 120.605469 94.664062 121.296875 94.941406 121.984375 95.214844 C 123.023438 95.621094 124.066406 96.03125 125.113281 96.414062 C 126.160156 96.792969 127.214844 97.175781 128.269531 97.535156 C 130.796875 97.609375 133.320312 97.527344 135.84375 97.296875 C 138.199219 96.867188 140.492188 96.269531 142.753906 95.511719 L 142.753906 95.300781 C 115.007812 95.828125 96.796875 81.898438 96.796875 81.898438 L 97.679688 86.664062 C 100.265625 86.472656 102.996094 87.007812 105.597656 88.109375 "/>
<path style=" stroke:none;fill-rule:nonzero;fill:rgb(63.919067%,29.798889%,27.449036%);fill-opacity:1;" d="M 132.167969 86.601562 C 132.167969 86.601562 136.265625 82.933594 139.222656 82.601562 C 142.179688 82.277344 137.621094 85.28125 135.707031 87.632812 C 133.789062 89.992188 132.179688 89.078125 132.167969 86.601562 "/>
<path style=" stroke:none;fill-rule:nonzero;fill:rgb(63.919067%,29.798889%,27.449036%);fill-opacity:1;" d="M 132.695312 85.984375 C 132.695312 85.984375 143.0625 80.449219 146.519531 85.304688 C 149.976562 90.164062 141.652344 92.386719 141.652344 92.386719 C 141.652344 92.386719 134.167969 93.953125 131.449219 92.386719 C 128.734375 90.824219 132.695312 85.984375 132.695312 85.984375 "/>
<path style=" stroke:none;fill-rule:nonzero;fill:rgb(63.919067%,29.798889%,27.449036%);fill-opacity:1;" d="M 98.367188 90.359375 C 98.367188 90.359375 89.957031 87.425781 87.570312 89 C 85.183594 90.578125 85.675781 83.085938 89.792969 81.359375 C 93.910156 79.628906 94.925781 80.6875 97.210938 82.203125 C 99.496094 83.710938 98.367188 90.359375 98.367188 90.359375 "/>
<path style=" stroke:none;fill-rule:nonzero;fill:rgb(63.919067%,29.798889%,27.449036%);fill-opacity:1;" d="M 114.796875 50.300781 C 114.796875 50.300781 121.894531 50.753906 123.1875 48.742188 C 124.484375 46.738281 127.746094 39.214844 127.746094 39.214844 C 127.746094 39.214844 127.644531 23.882812 125.984375 23.261719 C 124.328125 22.640625 109.828125 21.605469 108.789062 24.921875 C 107.753906 28.234375 107.855469 41.390625 107.855469 41.390625 L 114.796875 50.300781 "/>
<path style=" stroke:none;fill-rule:nonzero;fill:rgb(12.939453%,9.799194%,12.939453%);fill-opacity:1;" d="M 108.503906 38.65625 L 109.695312 37.347656 L 110.261719 31.734375 C 110.261719 31.734375 111.425781 29.179688 111.324219 24.171875 C 111.21875 19.15625 107.789062 24.5625 107.789062 24.5625 L 107.09375 33.40625 C 107.09375 33.40625 108.945312 30.433594 108.503906 38.65625 "/>
<path style=" stroke:none;fill-rule:nonzero;fill:rgb(63.919067%,29.798889%,27.449036%);fill-opacity:1;" d="M 108.332031 29.238281 C 108.332031 29.238281 107.378906 29.152344 106.25 30.757812 C 105.121094 32.363281 106.621094 35.109375 106.621094 35.109375 L 108.332031 37.65625 C 108.332031 37.65625 109.417969 30.847656 108.332031 29.238281 "/>
</g>
</svg>
