<svg xmlns="http://www.w3.org/2000/svg" xmlns:xlink="http://www.w3.org/1999/xlink" width="400" height="400" version="1.2" viewBox="0 0 300 300"><defs><clipPath id="clip1"><path d="M 0 204 L 86.78125 204 L 86.78125 300 L 0 300 Z M 0 204"/></clipPath><clipPath id="clip2"><path d="M 231.421875 184.148438 L 300 184.148438 L 300 287 L 231.421875 287 Z M 231.421875 184.148438"/></clipPath><clipPath id="clip3"><path d="M 146.050781 251.175781 L 196 251.175781 L 196 300 L 146.050781 300 Z M 146.050781 251.175781"/></clipPath><clipPath id="clip4"><path d="M 221.542969 0 L 300 0 L 300 75 L 221.542969 75 Z M 221.542969 0"/></clipPath><clipPath id="clip5"><path d="M 248.355469 87.488281 L 300 87.488281 L 300 137.582031 L 248.355469 137.582031 Z M 248.355469 87.488281"/></clipPath></defs><g id="surface1"><path style="stroke:none;fill-rule:nonzero;fill:#ecc1ab;fill-opacity:1" d="M 37.605469 166.203125 C 34.210938 184.730469 32.242188 191.378906 34.660156 206.601562 C 37.582031 224.992188 47.09375 231.582031 47.09375 231.582031 C 47.09375 231.582031 66.835938 245.617188 79.96875 242.558594 C 104.871094 236.75 116.214844 214.367188 127.84375 196.425781 L 127.828125 196.421875 C 132.175781 189.878906 136.796875 182.183594 140.441406 175.902344 C 146.445312 165.578125 149.890625 161.78125 149.121094 158.019531 C 147.882812 151.976562 141.960938 151.394531 138.84375 153.828125 C 135.710938 156.28125 121.675781 177.117188 115.324219 186.921875 C 114.085938 188.824219 113.402344 188.242188 114.597656 186.082031 C 114.515625 186.117188 114.460938 186.167969 114.382812 186.203125 C 120.722656 176.175781 128.003906 162.363281 132.078125 154.472656 C 139.84375 139.460938 145.9375 133.28125 141.46875 127.507812 C 137.011719 121.730469 130.035156 122.59375 126.816406 126.222656 C 122.601562 131 108.417969 161.8125 99.304688 174.542969 C 98.992188 174.976562 98.3125 174.511719 98.359375 173.566406 C 98.667969 173.011719 98.96875 172.433594 99.28125 171.824219 C 99.410156 171.667969 99.425781 171.546875 99.605469 171.378906 C 99.558594 171.394531 99.523438 171.417969 99.472656 171.433594 C 104.808594 160.710938 111.441406 142.625 116.257812 132.652344 C 122.613281 119.484375 128.960938 112.207031 123.753906 107.078125 C 118.570312 101.957031 112.242188 104.050781 109.386719 107.96875 C 106.597656 111.800781 89.511719 149.019531 81.148438 161.746094 C 78.035156 161.796875 88.777344 144.890625 93.179688 130.964844 C 97.585938 117.027344 101.390625 110.636719 95.234375 106.703125 C 89.082031 102.765625 83.847656 107.554688 81.875 111.988281 C 79.917969 116.421875 67.980469 146.800781 62.523438 160.003906 C 57.082031 173.214844 53.28125 172.730469 57.464844 155.042969 C 59.421875 146.8125 57.371094 136.367188 46.007812 139.980469 C 41.476562 141.414062 40.40625 150.863281 37.605469 166.203125"/><path style="stroke:none;fill-rule:nonzero;fill:#d1ab97;fill-opacity:1" d="M 119.121094 199.929688 C 119.082031 198.800781 118.261719 197.878906 117.335938 197.257812 C 116.835938 197.03125 116.316406 196.804688 115.765625 196.746094 C 115.21875 196.664062 114.664062 196.726562 114.140625 196.890625 C 116.164062 197.734375 117.585938 198.402344 119.121094 199.929688"/><path style="stroke:none;fill-rule:nonzero;fill:#d1ab97;fill-opacity:1" d="M 106.4375 188.03125 C 106.398438 186.496094 105.277344 185.238281 104.035156 184.417969 C 103.34375 184.101562 102.644531 183.78125 101.894531 183.714844 C 101.152344 183.601562 100.398438 183.699219 99.710938 183.917969 C 102.441406 185.050781 104.371094 185.964844 106.4375 188.03125"/><path style="stroke:none;fill-rule:nonzero;fill:#d1ab97;fill-opacity:1" d="M 74.203125 168.410156 C 73.613281 166.988281 72.140625 166.203125 70.683594 165.84375 C 69.933594 165.789062 69.164062 165.734375 68.441406 165.9375 C 67.699219 166.078125 67.039062 166.433594 66.441406 166.871094 C 69.417969 166.988281 71.535156 167.183594 74.203125 168.410156"/><path style="stroke:none;fill-rule:nonzero;fill:#d1ab97;fill-opacity:1" d="M 90.5625 177.363281 C 90.511719 175.8125 89.394531 174.558594 88.148438 173.746094 C 87.46875 173.425781 86.765625 173.109375 86.011719 173.039062 C 85.273438 172.921875 84.527344 173.023438 83.816406 173.230469 C 86.558594 174.371094 88.484375 175.28125 90.5625 177.363281"/><path style="stroke:none;fill-rule:nonzero;fill:#e8edeb;fill-opacity:1" d="M 109.78125 114.285156 C 109.476562 114.972656 108.363281 119.25 112.941406 121.355469 C 116.980469 123.210938 119.960938 119.65625 120.277344 118.933594 L 122.78125 113.429688 C 123.082031 112.757812 123.351562 110.679688 118.792969 108.734375 C 113.839844 106.628906 113.117188 107.878906 112.78125 108.609375 L 109.78125 114.285156"/><path style="stroke:none;fill-rule:nonzero;fill:#e8edeb;fill-opacity:1" d="M 47.210938 150.25 C 47.09375 151.011719 45.125 155.074219 40.757812 154.398438 C 40.464844 154.351562 40.023438 154.34375 39.757812 154.277344 C 40.949219 148.203125 42.265625 141.941406 42.566406 141.050781 C 47.523438 141.332031 48.511719 142.464844 48.21875 144.480469 L 47.210938 150.25"/><path style="stroke:none;fill-rule:nonzero;fill:#e8edeb;fill-opacity:1" d="M 84.261719 115.191406 C 84.042969 115.882812 83.472656 120.015625 87.980469 121.484375 C 91.976562 122.78125 94.386719 119.136719 94.605469 118.421875 L 96.355469 112.988281 C 96.5625 112.332031 96.597656 110.34375 92.09375 109.03125 C 87.230469 107.589844 86.6875 108.835938 86.453125 109.558594 L 84.261719 115.191406"/><path style="stroke:none;fill-rule:nonzero;fill:#e8edeb;fill-opacity:1" d="M 127.753906 133.371094 C 127.449219 133.988281 126.28125 137.792969 130.308594 139.867188 C 133.871094 141.707031 136.695312 138.617188 137.019531 138 L 139.488281 133.128906 C 139.789062 132.53125 140.117188 130.671875 136.082031 128.742188 C 131.710938 126.65625 131.007812 127.746094 130.691406 128.394531 L 127.753906 133.371094"/><path style="stroke:none;fill-rule:nonzero;fill:#e8edeb;fill-opacity:1" d="M 139.09375 159.425781 C 138.90625 159.816406 138.15625 162.257812 140.746094 163.609375 C 143.035156 164.773438 144.851562 162.792969 145.050781 162.394531 L 146.636719 159.265625 C 146.835938 158.882812 147.046875 157.695312 144.457031 156.453125 C 141.640625 155.113281 141.195312 155.8125 140.984375 156.214844 L 139.09375 159.425781"/><g clip-path="url(#clip1)" clip-rule="nonzero"><path style="stroke:none;fill-rule:nonzero;fill:#ecc1ab;fill-opacity:1" d="M 33.101562 300 L 81.996094 242.605469 C 89.570312 233.71875 87.304688 219.414062 76.933594 210.640625 C 66.5625 201.882812 52.019531 201.988281 44.445312 210.878906 L 0.00390625 263.058594 L 0.00390625 300 L 33.101562 300"/></g><path style="stroke:none;fill-rule:nonzero;fill:#e0b9ab;fill-opacity:1" d="M 196.394531 223.1875 C 214.65625 228.070312 221.144531 230.570312 236.570312 229.417969 C 255.21875 228.023438 262.585938 219.121094 262.585938 219.121094 C 262.585938 219.121094 278.25 200.664062 276.257812 187.386719 C 272.484375 162.1875 251.011719 149.101562 234.007812 136.089844 L 234 136.097656 C 227.816406 131.246094 220.488281 126.042969 214.5 121.910156 C 204.65625 115.113281 201.136719 111.371094 197.308594 111.832031 C 191.171875 112.566406 190.09375 118.398438 192.285156 121.683594 C 194.472656 125 214.1875 140.632812 223.476562 147.738281 C 225.28125 149.117188 224.644531 149.753906 222.566406 148.398438 C 222.605469 148.476562 222.648438 148.539062 222.679688 148.613281 C 213.167969 141.5 199.925781 133.140625 192.375 128.453125 C 177.988281 119.519531 172.292969 112.972656 166.152344 116.929688 C 160.019531 120.878906 160.296875 127.878906 163.675781 131.367188 C 168.105469 135.949219 197.78125 152.539062 209.773438 162.625 C 210.179688 162.976562 209.65625 163.609375 208.71875 163.484375 C 208.1875 163.132812 207.640625 162.792969 207.050781 162.433594 C 206.90625 162.292969 206.789062 162.265625 206.636719 162.074219 C 206.648438 162.121094 206.671875 162.152344 206.683594 162.207031 C 196.390625 156.035156 178.828125 147.96875 169.238281 142.378906 C 156.582031 134.996094 149.820312 128.101562 144.265625 132.84375 C 138.714844 137.574219 140.292969 144.027344 143.980469 147.179688 C 147.585938 150.261719 183.441406 170.265625 195.496094 179.601562 C 195.285156 182.703125 179.242188 170.65625 165.667969 165.148438 C 152.089844 159.628906 146 155.335938 141.554688 161.125 C 137.117188 166.910156 141.484375 172.492188 145.757812 174.8125 C 150.027344 177.125 179.457031 191.457031 192.222656 197.949219 C 204.988281 204.425781 204.203125 208.167969 186.847656 202.5625 C 178.765625 199.949219 168.148438 201.132812 170.835938 212.710938 C 171.902344 217.324219 181.269531 219.152344 196.394531 223.1875"/><path style="stroke:none;fill-rule:nonzero;fill:#caa597;fill-opacity:1" d="M 236.804688 145.035156 C 235.671875 144.984375 234.675781 145.71875 233.988281 146.582031 C 233.710938 147.0625 233.441406 147.566406 233.339844 148.101562 C 233.21875 148.640625 233.234375 149.199219 233.34375 149.726562 C 234.355469 147.789062 235.148438 146.421875 236.804688 145.035156"/><path style="stroke:none;fill-rule:nonzero;fill:#caa597;fill-opacity:1" d="M 223.851562 156.648438 C 222.324219 156.566406 220.96875 157.570312 220.039062 158.746094 C 219.667969 159.40625 219.292969 160.074219 219.164062 160.804688 C 219 161.527344 219.035156 162.28125 219.1875 162.996094 C 220.546875 160.375 221.617188 158.535156 223.851562 156.648438"/><path style="stroke:none;fill-rule:nonzero;fill:#caa597;fill-opacity:1" d="M 201.59375 187.046875 C 200.117188 187.515625 199.210938 188.914062 198.738281 190.324219 C 198.613281 191.070312 198.503906 191.824219 198.644531 192.566406 C 198.730469 193.308594 199.019531 194 199.417969 194.617188 C 199.777344 191.679688 200.148438 189.589844 201.59375 187.046875"/><path style="stroke:none;fill-rule:nonzero;fill:#caa597;fill-opacity:1" d="M 211.878906 171.542969 C 210.324219 171.464844 208.984375 172.46875 208.0625 173.636719 C 207.6875 174.289062 207.316406 174.953125 207.179688 175.695312 C 207.011719 176.417969 207.046875 177.167969 207.199219 177.890625 C 208.566406 175.265625 209.632812 173.425781 211.878906 171.542969"/><path style="stroke:none;fill-rule:nonzero;fill:#e8edeb;fill-opacity:1" d="M 150.335938 147.304688 C 150.996094 147.671875 155.195312 149.109375 157.664062 144.746094 C 159.855469 140.886719 156.539062 137.636719 155.847656 137.273438 L 150.542969 134.335938 C 149.890625 133.976562 147.832031 133.539062 145.519531 137.90625 C 143 142.648438 144.191406 143.46875 144.898438 143.867188 L 150.335938 147.304688"/><path style="stroke:none;fill-rule:nonzero;fill:#e8edeb;fill-opacity:1" d="M 181.210938 212.355469 C 181.964844 212.535156 185.867188 214.8125 184.832031 219.109375 C 184.761719 219.386719 184.722656 219.824219 184.632812 220.078125 C 178.640625 218.410156 172.496094 216.582031 171.632812 216.207031 C 172.3125 211.308594 173.53125 210.421875 175.519531 210.886719 L 181.210938 212.355469"/><path style="stroke:none;fill-rule:nonzero;fill:#e8edeb;fill-opacity:1" d="M 149.160156 172.707031 C 149.828125 172.976562 153.917969 173.890625 155.753906 169.535156 C 157.386719 165.675781 153.933594 162.976562 153.238281 162.703125 L 147.933594 160.527344 C 147.296875 160.261719 145.320312 160.0625 143.632812 164.425781 C 141.800781 169.136719 142.996094 169.785156 143.699219 170.074219 L 149.160156 172.707031"/><path style="stroke:none;fill-rule:nonzero;fill:#e8edeb;fill-opacity:1" d="M 170.898438 131.027344 C 171.496094 131.382812 175.207031 132.855469 177.605469 129.023438 C 179.742188 125.628906 176.878906 122.574219 176.28125 122.210938 L 171.609375 119.355469 C 171.039062 119.011719 169.214844 118.523438 166.957031 122.378906 C 164.5 126.546875 165.535156 127.335938 166.15625 127.707031 L 170.898438 131.027344"/><path style="stroke:none;fill-rule:nonzero;fill:#e8edeb;fill-opacity:1" d="M 197.898438 121.898438 C 198.277344 122.109375 200.660156 123.054688 202.21875 120.597656 C 203.578125 118.421875 201.742188 116.457031 201.355469 116.230469 L 198.359375 114.394531 C 197.992188 114.167969 196.820312 113.855469 195.359375 116.332031 C 193.792969 119.015625 194.453125 119.519531 194.84375 119.757812 L 197.898438 121.898438"/><g clip-path="url(#clip2)" clip-rule="nonzero"><path style="stroke:none;fill-rule:nonzero;fill:#e0b9ab;fill-opacity:1" d="M 300 217.441406 L 272.136719 189.691406 C 263.863281 181.449219 249.359375 182.523438 239.738281 192.101562 C 230.121094 201.683594 229.042969 216.125 237.320312 224.375 L 300 286.796875 L 300 217.441406"/></g><path style="stroke:none;fill-rule:nonzero;fill:#f8cda5;fill-opacity:1" d="M 110.984375 59.796875 C 92.722656 54.910156 86.230469 52.414062 70.804688 53.5625 C 52.160156 54.964844 44.78125 63.867188 44.78125 63.867188 C 44.78125 63.867188 29.125 82.316406 31.117188 95.59375 C 34.890625 120.796875 56.359375 133.890625 73.367188 146.890625 L 73.367188 146.882812 C 79.566406 151.738281 86.890625 156.945312 92.878906 161.070312 C 102.722656 167.875 106.242188 171.609375 110.0625 171.152344 C 116.210938 170.414062 117.277344 164.589844 115.085938 161.296875 C 112.898438 157.984375 93.191406 142.347656 83.898438 135.246094 C 82.09375 133.863281 82.738281 133.226562 84.796875 134.589844 C 84.769531 134.507812 84.722656 134.453125 84.695312 134.367188 C 94.214844 141.480469 107.4375 149.84375 115 154.527344 C 129.386719 163.46875 135.078125 170.015625 141.226562 166.050781 C 147.359375 162.105469 147.074219 155.101562 143.699219 151.613281 C 139.265625 147.042969 109.59375 130.441406 97.597656 120.363281 C 97.195312 120.007812 97.714844 119.371094 98.652344 119.5 C 99.183594 119.847656 99.738281 120.191406 100.324219 120.550781 C 100.464844 120.691406 100.582031 120.722656 100.738281 120.90625 C 100.722656 120.859375 100.707031 120.824219 100.699219 120.777344 C 110.984375 126.953125 128.542969 135.015625 138.128906 140.605469 C 150.792969 147.992188 157.550781 154.886719 163.113281 150.140625 C 168.660156 145.410156 167.078125 138.960938 163.398438 135.800781 C 159.792969 132.71875 123.933594 112.714844 111.882812 103.386719 C 112.085938 100.285156 128.128906 112.324219 141.710938 117.835938 C 155.289062 123.351562 161.378906 127.644531 165.824219 121.859375 C 170.257812 116.078125 165.886719 110.492188 161.613281 108.167969 C 157.347656 105.855469 127.925781 91.523438 115.144531 85.03125 C 102.378906 78.554688 103.175781 74.816406 120.523438 80.425781 C 128.605469 83.035156 139.226562 81.847656 136.539062 70.277344 C 135.46875 65.664062 126.105469 63.832031 110.984375 59.796875"/><path style="stroke:none;fill-rule:nonzero;fill:#d3af8c;fill-opacity:1" d="M 70.570312 137.953125 C 71.707031 138 72.695312 137.261719 73.386719 136.398438 C 73.660156 135.921875 73.929688 135.421875 74.03125 134.878906 C 74.15625 134.347656 74.132812 133.792969 74.023438 133.257812 C 73.019531 135.191406 72.230469 136.558594 70.570312 137.953125"/><path style="stroke:none;fill-rule:nonzero;fill:#d3af8c;fill-opacity:1" d="M 83.515625 126.335938 C 85.054688 126.417969 86.40625 125.402344 87.335938 124.242188 C 87.707031 123.582031 88.082031 122.914062 88.203125 122.183594 C 88.386719 121.449219 88.34375 120.691406 88.183594 119.992188 C 86.828125 122.609375 85.75 124.453125 83.515625 126.335938"/><path style="stroke:none;fill-rule:nonzero;fill:#d3af8c;fill-opacity:1" d="M 105.78125 95.9375 C 107.257812 95.46875 108.167969 94.066406 108.636719 92.652344 C 108.757812 91.914062 108.871094 91.15625 108.734375 90.421875 C 108.644531 89.671875 108.355469 88.992188 107.960938 88.363281 C 107.597656 91.300781 107.230469 93.394531 105.78125 95.9375"/><path style="stroke:none;fill-rule:nonzero;fill:#d3af8c;fill-opacity:1" d="M 95.5 111.4375 C 97.050781 111.515625 98.386719 110.515625 99.316406 109.347656 C 99.691406 108.691406 100.0625 108.027344 100.191406 107.292969 C 100.371094 106.558594 100.328125 105.808594 100.175781 105.09375 C 98.820312 107.710938 97.742188 109.554688 95.5 111.4375"/><path style="stroke:none;fill-rule:nonzero;fill:#eee6e2;fill-opacity:1" d="M 157.042969 135.679688 C 156.382812 135.3125 152.183594 133.871094 149.710938 138.242188 C 147.515625 142.097656 150.832031 145.339844 151.523438 145.710938 L 156.832031 148.652344 C 157.488281 149.007812 159.539062 149.445312 161.851562 145.082031 C 164.371094 140.332031 163.179688 139.519531 162.476562 139.117188 L 157.042969 135.679688"/><path style="stroke:none;fill-rule:nonzero;fill:#eee6e2;fill-opacity:1" d="M 126.160156 70.628906 C 125.414062 70.449219 121.507812 68.167969 122.546875 63.878906 C 122.613281 63.597656 122.652344 63.160156 122.742188 62.90625 C 128.734375 64.578125 134.886719 66.402344 135.742188 66.78125 C 135.066406 71.667969 133.84375 72.5625 131.859375 72.097656 L 126.160156 70.628906"/><path style="stroke:none;fill-rule:nonzero;fill:#eee6e2;fill-opacity:1" d="M 158.21875 110.277344 C 157.539062 110.011719 153.460938 109.09375 151.621094 113.449219 C 149.984375 117.3125 153.4375 120.003906 154.136719 120.28125 L 159.4375 122.457031 C 160.078125 122.722656 162.058594 122.914062 163.742188 118.554688 C 165.582031 113.839844 164.382812 113.191406 163.671875 112.90625 L 158.21875 110.277344"/><path style="stroke:none;fill-rule:nonzero;fill:#eee6e2;fill-opacity:1" d="M 136.46875 151.964844 C 135.882812 151.601562 132.167969 150.132812 129.765625 153.96875 C 127.632812 157.351562 130.5 160.40625 131.09375 160.777344 L 135.761719 163.632812 C 136.328125 163.972656 138.164062 164.453125 140.417969 160.605469 C 142.871094 156.4375 141.835938 155.652344 141.214844 155.277344 L 136.46875 151.964844"/><path style="stroke:none;fill-rule:nonzero;fill:#eee6e2;fill-opacity:1" d="M 109.472656 161.085938 C 109.09375 160.875 106.714844 159.921875 105.15625 162.382812 C 103.796875 164.5625 105.640625 166.527344 106.023438 166.753906 L 109.015625 168.589844 C 109.386719 168.816406 110.554688 169.128906 112.011719 166.65625 C 113.582031 163.96875 112.925781 163.46875 112.53125 163.230469 L 109.472656 161.085938"/><path style="stroke:none;fill-rule:nonzero;fill:#f8cda5;fill-opacity:1" d="M 68.003906 60.65625 L 7.097656 0.00390625 L 0.00390625 0.00390625 L 0.00390625 62.292969 L 33.179688 95.335938 C 41.453125 103.582031 55.964844 102.507812 65.582031 92.925781 C 75.203125 83.347656 76.28125 68.902344 68.003906 60.65625"/><path style="stroke:none;fill-rule:nonzero;fill:#fabf95;fill-opacity:1" d="M 113.113281 243.164062 C 122.5625 259.476562 125.382812 265.8125 137.101562 275.863281 C 151.277344 288.011719 162.8125 286.90625 162.8125 286.90625 C 162.8125 286.90625 186.980469 284.886719 195.003906 274.09375 C 210.226562 253.617188 204.34375 229.242188 201.546875 208.066406 L 201.539062 208.070312 C 200.605469 200.277344 199.128906 191.4375 197.820312 184.300781 C 195.6875 172.558594 195.851562 167.4375 192.820312 165.070312 C 187.957031 161.265625 183.0625 164.628906 182.273438 168.496094 C 181.46875 172.382812 184.304688 197.324219 185.828125 208.886719 C 186.125 211.128906 185.222656 211.128906 184.730469 208.714844 C 184.691406 208.796875 184.679688 208.867188 184.640625 208.945312 C 182.964844 197.214844 179.542969 181.988281 177.527344 173.347656 C 173.6875 156.898438 174.324219 148.257812 167.167969 146.730469 C 160.027344 145.207031 155.257812 150.355469 155.164062 155.199219 C 155.050781 161.554688 164.246094 194.1875 165.574219 209.761719 C 165.609375 210.300781 164.789062 210.378906 164.222656 209.632812 C 164.089844 209.007812 163.9375 208.378906 163.785156 207.710938 C 163.785156 207.507812 163.714844 207.40625 163.746094 207.164062 C 163.714844 207.207031 163.707031 207.246094 163.6875 207.292969 C 160.789062 195.675781 154.09375 177.609375 151.289062 166.902344 C 147.585938 152.765625 147.691406 143.128906 140.390625 142.566406 C 133.105469 142.003906 129.648438 147.679688 130.011719 152.507812 C 130.371094 157.226562 141.523438 196.621094 143.425781 211.710938 C 141.070312 213.757812 138.28125 193.941406 132.589844 180.484375 C 126.902344 167.019531 125.644531 159.695312 118.398438 160.660156 C 111.148438 161.621094 110.277344 168.648438 111.648438 173.300781 C 113.03125 177.9375 123.660156 208.796875 128.078125 222.382812 C 132.515625 235.957031 129.300781 238.042969 121.007812 221.855469 C 117.15625 214.320312 108.796875 207.679688 102.476562 217.757812 C 99.953125 221.773438 105.285156 229.664062 113.113281 243.164062"/><path style="stroke:none;fill-rule:nonzero;fill:#e5ae88;fill-opacity:1" d="M 197.167969 216.359375 C 196.40625 215.527344 195.183594 215.351562 194.082031 215.472656 C 193.550781 215.621094 193 215.78125 192.550781 216.089844 C 192.074219 216.382812 191.703125 216.789062 191.402344 217.242188 C 193.488281 216.585938 195.019531 216.179688 197.167969 216.359375"/><path style="stroke:none;fill-rule:nonzero;fill:#e5ae88;fill-opacity:1" d="M 179.773438 215.453125 C 178.75 214.3125 177.074219 214.078125 175.589844 214.25 C 174.859375 214.453125 174.113281 214.660156 173.507812 215.089844 C 172.867188 215.480469 172.359375 216.042969 171.96875 216.65625 C 174.785156 215.761719 176.851562 215.210938 179.773438 215.453125"/><path style="stroke:none;fill-rule:nonzero;fill:#e5ae88;fill-opacity:1" d="M 142.453125 221.265625 C 141.074219 220.5625 139.441406 220.910156 138.101562 221.582031 C 137.492188 222.019531 136.875 222.472656 136.449219 223.089844 C 135.976562 223.679688 135.699219 224.378906 135.539062 225.089844 C 137.867188 223.269531 139.617188 222.050781 142.453125 221.265625"/><path style="stroke:none;fill-rule:nonzero;fill:#e5ae88;fill-opacity:1" d="M 160.730469 217.550781 C 159.6875 216.40625 158.023438 216.167969 156.550781 216.34375 C 155.820312 216.542969 155.074219 216.753906 154.464844 217.179688 C 153.820312 217.570312 153.316406 218.128906 152.910156 218.746094 C 155.738281 217.851562 157.796875 217.300781 160.730469 217.550781"/><path style="stroke:none;fill-rule:nonzero;fill:#e8edeb;fill-opacity:1" d="M 134.421875 157.066406 C 134.628906 157.792969 136.566406 161.765625 141.417969 160.421875 C 145.710938 159.238281 145.667969 154.605469 145.445312 153.855469 L 143.773438 148.042969 C 143.570312 147.332031 142.425781 145.574219 137.683594 147.03125 C 132.539062 148.613281 132.800781 150.03125 133.019531 150.808594 L 134.421875 157.066406"/><path style="stroke:none;fill-rule:nonzero;fill:#e8edeb;fill-opacity:1" d="M 110.074219 224.8125 C 110.472656 225.46875 111.621094 229.832031 107.835938 232.136719 C 107.589844 232.289062 107.242188 232.5625 107.007812 232.683594 C 103.957031 227.28125 100.894531 221.660156 100.5625 220.789062 C 104.515625 217.808594 106.007812 218.035156 107.089844 219.765625 L 110.074219 224.8125"/><path style="stroke:none;fill-rule:nonzero;fill:#e8edeb;fill-opacity:1" d="M 115.550781 174.203125 C 115.828125 174.871094 118.082031 178.390625 122.46875 176.605469 C 126.371094 175.027344 125.835938 170.691406 125.539062 170.003906 L 123.339844 164.730469 C 123.074219 164.09375 121.808594 162.558594 117.519531 164.460938 C 112.878906 166.492188 113.261719 167.796875 113.566406 168.496094 L 115.550781 174.203125"/><path style="stroke:none;fill-rule:nonzero;fill:#e8edeb;fill-opacity:1" d="M 160.527344 160.042969 C 160.683594 160.710938 162.273438 164.367188 166.691406 163.347656 C 170.601562 162.453125 170.746094 158.28125 170.585938 157.597656 L 169.308594 152.292969 C 169.148438 151.644531 168.195312 150.015625 163.871094 151.148438 C 159.175781 152.367188 159.347656 153.652344 159.523438 154.359375 L 160.527344 160.042969"/><path style="stroke:none;fill-rule:nonzero;fill:#e8edeb;fill-opacity:1" d="M 186.097656 172.601562 C 186.210938 173.023438 187.21875 175.371094 190.0625 174.726562 C 192.574219 174.140625 192.667969 171.460938 192.558594 171.027344 L 191.738281 167.617188 C 191.640625 167.203125 191.035156 166.15625 188.246094 166.878906 C 185.230469 167.671875 185.34375 168.496094 185.445312 168.933594 L 186.097656 172.601562"/><g clip-path="url(#clip3)" clip-rule="nonzero"><path style="stroke:none;fill-rule:nonzero;fill:#fabf95;fill-opacity:1" d="M 195.554688 300 L 195.554688 272.820312 C 195.554688 261.160156 184.527344 251.710938 170.929688 251.710938 C 157.328125 251.710938 146.3125 261.160156 146.3125 272.820312 L 146.3125 300 L 195.554688 300"/></g><path style="stroke:none;fill-rule:nonzero;fill:#fbcdb9;fill-opacity:1" d="M 263.042969 112.246094 C 267.945312 94.0625 270.453125 87.59375 269.300781 72.234375 C 267.898438 53.664062 258.953125 46.316406 258.953125 46.316406 C 258.953125 46.316406 240.429688 30.722656 227.097656 32.707031 C 201.796875 36.460938 188.652344 57.84375 175.59375 74.789062 L 175.597656 74.789062 C 170.730469 80.949219 165.496094 88.246094 161.351562 94.214844 C 154.527344 104.023438 150.769531 107.523438 151.234375 111.332031 C 151.976562 117.453125 157.824219 118.519531 161.132812 116.34375 C 164.457031 114.160156 180.15625 94.53125 187.289062 85.273438 C 188.675781 83.476562 189.3125 84.117188 187.945312 86.171875 C 188.027344 86.144531 188.09375 86.097656 188.167969 86.066406 C 181.027344 95.546875 172.632812 108.722656 167.925781 116.253906 C 158.957031 130.585938 152.378906 136.246094 156.355469 142.363281 C 160.324219 148.476562 167.351562 148.195312 170.851562 144.828125 C 175.441406 140.417969 192.117188 110.875 202.234375 98.914062 C 202.59375 98.515625 203.230469 99.035156 203.097656 99.96875 C 202.746094 100.496094 202.402344 101.050781 202.042969 101.628906 C 201.898438 101.773438 201.878906 101.898438 201.683594 102.046875 C 201.730469 102.039062 201.765625 102.011719 201.8125 102 C 195.617188 112.25 187.523438 129.746094 181.90625 139.289062 C 174.492188 151.898438 167.574219 158.632812 172.332031 164.171875 C 177.082031 169.699219 183.5625 168.117188 186.726562 164.445312 C 189.816406 160.855469 209.910156 125.152344 219.277344 113.140625 C 222.398438 113.355469 210.296875 129.328125 204.773438 142.851562 C 199.234375 156.382812 194.921875 162.441406 200.730469 166.867188 C 206.542969 171.289062 212.148438 166.941406 214.472656 162.679688 C 216.792969 158.433594 231.1875 129.117188 237.703125 116.398438 C 244.210938 103.679688 247.964844 104.472656 242.335938 121.753906 C 239.707031 129.800781 240.902344 140.382812 252.519531 137.703125 C 257.160156 136.640625 258.988281 127.308594 263.042969 112.246094"/><path style="stroke:none;fill-rule:nonzero;fill:#d19b8a;fill-opacity:1" d="M 184.574219 71.996094 C 184.519531 73.125 185.261719 74.117188 186.128906 74.800781 C 186.613281 75.078125 187.121094 75.351562 187.660156 75.449219 C 188.195312 75.574219 188.742188 75.550781 189.28125 75.441406 C 187.339844 74.4375 185.96875 73.648438 184.574219 71.996094"/><path style="stroke:none;fill-rule:nonzero;fill:#d19b8a;fill-opacity:1" d="M 196.238281 84.890625 C 196.152344 86.425781 197.164062 87.765625 198.339844 88.699219 C 199.003906 89.066406 199.671875 89.441406 200.40625 89.566406 C 201.136719 89.738281 201.890625 89.695312 202.601562 89.539062 C 199.976562 88.1875 198.128906 87.125 196.238281 84.890625"/><path style="stroke:none;fill-rule:nonzero;fill:#d19b8a;fill-opacity:1" d="M 226.75 107.070312 C 227.222656 108.535156 228.632812 109.445312 230.046875 109.90625 C 230.789062 110.023438 231.554688 110.144531 232.296875 110.011719 C 233.042969 109.917969 233.738281 109.628906 234.355469 109.234375 C 231.414062 108.878906 229.308594 108.507812 226.75 107.070312"/><path style="stroke:none;fill-rule:nonzero;fill:#d19b8a;fill-opacity:1" d="M 211.191406 96.824219 C 211.109375 98.363281 212.121094 99.707031 213.289062 100.621094 C 213.945312 100.996094 214.621094 101.375 215.359375 101.5 C 216.085938 101.671875 216.835938 101.636719 217.566406 101.484375 C 214.929688 100.128906 213.085938 99.0625 211.191406 96.824219"/><path style="stroke:none;fill-rule:nonzero;fill:#e8edeb;fill-opacity:1" d="M 186.855469 158.125 C 187.214844 157.460938 188.667969 153.285156 184.285156 150.824219 C 180.402344 148.632812 177.148438 151.945312 176.777344 152.628906 L 173.828125 157.917969 C 173.46875 158.558594 173.027344 160.613281 177.417969 162.917969 C 182.179688 165.429688 183.003906 164.234375 183.402344 163.535156 L 186.855469 158.125"/><path style="stroke:none;fill-rule:nonzero;fill:#e8edeb;fill-opacity:1" d="M 252.160156 127.367188 C 252.351562 126.617188 254.640625 122.730469 258.945312 123.761719 C 259.222656 123.828125 259.667969 123.875 259.921875 123.957031 C 258.242188 129.929688 256.414062 136.050781 256.03125 136.910156 C 251.117188 136.230469 250.234375 135.023438 250.691406 133.035156 L 252.160156 127.367188"/><path style="stroke:none;fill-rule:nonzero;fill:#e8edeb;fill-opacity:1" d="M 212.355469 159.292969 C 212.632812 158.621094 213.542969 154.546875 209.171875 152.722656 C 205.292969 151.09375 202.59375 154.535156 202.320312 155.230469 L 200.128906 160.507812 C 199.859375 161.144531 199.664062 163.113281 204.042969 164.796875 C 208.773438 166.628906 209.425781 165.433594 209.710938 164.726562 L 212.355469 159.292969"/><path style="stroke:none;fill-rule:nonzero;fill:#e8edeb;fill-opacity:1" d="M 170.503906 137.632812 C 170.863281 137.042969 172.339844 133.347656 168.496094 130.953125 C 165.089844 128.835938 162.027344 131.679688 161.660156 132.28125 L 158.792969 136.925781 C 158.441406 137.5 157.957031 139.320312 161.820312 141.566406 C 166.011719 144.007812 166.800781 142.980469 167.179688 142.359375 L 170.503906 137.632812"/><path style="stroke:none;fill-rule:nonzero;fill:#e8edeb;fill-opacity:1" d="M 161.335938 110.742188 C 161.558594 110.367188 162.511719 108 160.039062 106.453125 C 157.851562 105.089844 155.882812 106.917969 155.652344 107.308594 L 153.808594 110.289062 C 153.582031 110.652344 153.273438 111.820312 155.753906 113.273438 C 158.453125 114.839844 158.945312 114.171875 159.199219 113.785156 L 161.335938 110.742188"/><g clip-path="url(#clip4)" clip-rule="nonzero"><path style="stroke:none;fill-rule:nonzero;fill:#fbcdb9;fill-opacity:1" d="M 300 0.00390625 L 262.167969 0.00390625 L 227.3125 34.71875 C 219.035156 42.964844 220.125 57.417969 229.742188 66.992188 C 239.355469 76.566406 253.855469 77.644531 262.136719 69.394531 L 300 31.6875 L 300 0.00390625"/></g><path style="stroke:none;fill-rule:nonzero;fill:#dd8e55;fill-opacity:1" d="M 195.320312 58.636719 C 185.867188 42.328125 183.054688 35.988281 171.339844 25.933594 C 157.160156 13.792969 145.621094 14.894531 145.621094 14.894531 C 145.621094 14.894531 121.460938 16.917969 113.4375 27.707031 C 98.203125 48.179688 104.097656 72.5625 106.882812 93.734375 L 106.894531 93.730469 C 107.832031 101.523438 109.308594 110.363281 110.621094 117.5 C 112.746094 129.242188 112.578125 134.363281 115.609375 136.734375 C 120.488281 140.535156 125.375 137.171875 126.160156 133.304688 C 126.964844 129.417969 124.132812 104.480469 122.601562 92.914062 C 122.308594 90.671875 123.210938 90.671875 123.707031 93.089844 C 123.742188 93.003906 123.75 92.929688 123.789062 92.855469 C 125.476562 104.585938 128.894531 119.8125 130.914062 128.453125 C 134.738281 144.90625 134.113281 153.542969 141.269531 155.070312 C 148.40625 156.597656 153.175781 151.445312 153.265625 146.601562 C 153.378906 140.246094 144.175781 107.613281 142.863281 92.035156 C 142.824219 91.5 143.644531 91.421875 144.210938 92.171875 C 144.355469 92.792969 144.484375 93.425781 144.652344 94.089844 C 144.652344 94.292969 144.710938 94.394531 144.683594 94.636719 C 144.710938 94.59375 144.722656 94.558594 144.75 94.511719 C 147.648438 106.125 154.347656 124.195312 157.148438 134.898438 C 160.859375 149.035156 160.746094 158.671875 168.046875 159.234375 C 175.320312 159.792969 178.785156 154.117188 178.417969 149.296875 C 178.058594 144.578125 166.910156 105.183594 165.011719 90.089844 C 167.371094 88.046875 170.152344 107.859375 175.847656 121.316406 C 181.53125 134.78125 182.78125 142.109375 190.042969 141.144531 C 197.285156 140.179688 198.15625 133.152344 196.78125 128.503906 C 195.410156 123.863281 184.78125 93 180.34375 79.417969 C 175.921875 65.84375 179.140625 63.757812 187.421875 79.945312 C 191.285156 87.484375 199.636719 94.121094 205.960938 84.046875 C 208.480469 80.03125 203.152344 72.140625 195.320312 58.636719"/><path style="stroke:none;fill-rule:nonzero;fill:#bf7a49;fill-opacity:1" d="M 111.261719 85.441406 C 112.027344 86.277344 113.253906 86.453125 114.351562 86.332031 C 114.890625 86.179688 115.4375 86.019531 115.890625 85.707031 C 116.359375 85.417969 116.734375 85.011719 117.03125 84.558594 C 114.949219 85.214844 113.417969 85.621094 111.261719 85.441406"/><path style="stroke:none;fill-rule:nonzero;fill:#bf7a49;fill-opacity:1" d="M 128.667969 86.347656 C 129.695312 87.488281 131.363281 87.722656 132.847656 87.554688 C 133.582031 87.351562 134.320312 87.140625 134.929688 86.710938 C 135.566406 86.320312 136.070312 85.757812 136.46875 85.144531 C 133.652344 86.042969 131.582031 86.585938 128.667969 86.347656"/><path style="stroke:none;fill-rule:nonzero;fill:#bf7a49;fill-opacity:1" d="M 165.980469 80.53125 C 167.359375 81.242188 169 80.890625 170.332031 80.21875 C 170.941406 79.78125 171.566406 79.328125 171.992188 78.710938 C 172.453125 78.121094 172.734375 77.421875 172.894531 76.710938 C 170.570312 78.535156 168.816406 79.75 165.980469 80.53125"/><path style="stroke:none;fill-rule:nonzero;fill:#bf7a49;fill-opacity:1" d="M 147.707031 84.25 C 148.746094 85.394531 150.410156 85.632812 151.890625 85.457031 C 152.621094 85.257812 153.359375 85.050781 153.96875 84.621094 C 154.613281 84.230469 155.117188 83.671875 155.519531 83.054688 C 152.703125 83.949219 150.636719 84.496094 147.707031 84.25"/><path style="stroke:none;fill-rule:nonzero;fill:#f3c6b0;fill-opacity:1" d="M 174.019531 144.734375 C 173.808594 144.007812 171.867188 140.03125 167.015625 141.378906 C 162.722656 142.5625 162.773438 147.199219 162.988281 147.945312 L 164.65625 153.757812 C 164.867188 154.472656 166.003906 156.226562 170.746094 154.769531 C 175.898438 153.1875 175.632812 151.769531 175.414062 150.992188 L 174.019531 144.734375"/><path style="stroke:none;fill-rule:nonzero;fill:#f3c6b0;fill-opacity:1" d="M 198.363281 76.992188 C 197.96875 76.332031 196.820312 71.972656 200.597656 69.664062 C 200.84375 69.511719 201.1875 69.238281 201.421875 69.117188 C 204.472656 74.519531 207.535156 80.140625 207.871094 81.015625 C 203.921875 83.996094 202.425781 83.765625 201.347656 82.035156 L 198.363281 76.992188"/><path style="stroke:none;fill-rule:nonzero;fill:#f3c6b0;fill-opacity:1" d="M 192.882812 127.597656 C 192.601562 126.933594 190.351562 123.410156 185.960938 125.195312 C 182.058594 126.777344 182.605469 131.109375 182.898438 131.796875 L 185.101562 137.070312 C 185.359375 137.710938 186.625 139.242188 190.910156 137.34375 C 195.554688 135.304688 195.171875 134.007812 194.867188 133.304688 L 192.882812 127.597656"/><path style="stroke:none;fill-rule:nonzero;fill:#f3c6b0;fill-opacity:1" d="M 147.914062 141.761719 C 147.75 141.089844 146.164062 137.433594 141.75 138.453125 C 137.832031 139.347656 137.683594 143.523438 137.851562 144.207031 L 139.125 149.507812 C 139.285156 150.15625 140.238281 151.785156 144.566406 150.652344 C 149.261719 149.433594 149.089844 148.148438 148.914062 147.445312 L 147.914062 141.761719"/><path style="stroke:none;fill-rule:nonzero;fill:#f3c6b0;fill-opacity:1" d="M 122.339844 129.199219 C 122.226562 128.78125 121.210938 126.433594 118.363281 127.078125 C 115.863281 127.660156 115.765625 130.339844 115.878906 130.773438 L 116.6875 134.183594 C 116.792969 134.601562 117.402344 135.644531 120.1875 134.921875 C 123.207031 134.128906 123.089844 133.308594 122.984375 132.863281 L 122.339844 129.199219"/><path style="stroke:none;fill-rule:nonzero;fill:#dd8e55;fill-opacity:1" d="M 109.085938 0.00390625 L 109.085938 28.976562 C 109.085938 40.636719 120.109375 50.089844 133.714844 50.089844 C 147.304688 50.089844 158.328125 40.636719 158.328125 28.976562 L 158.328125 0.00390625 L 109.085938 0.00390625"/><path style="stroke:none;fill-rule:nonzero;fill:#b76440;fill-opacity:1" d="M 62.855469 91.957031 C 46.480469 101.355469 40.113281 104.164062 30.019531 115.84375 C 17.832031 129.960938 18.941406 141.453125 18.941406 141.453125 C 18.941406 141.453125 20.96875 165.519531 31.800781 173.515625 C 52.363281 188.679688 76.832031 182.804688 98.097656 180.027344 L 98.09375 180.019531 C 105.914062 179.089844 114.792969 177.613281 121.957031 176.308594 C 133.75 174.191406 138.890625 174.363281 141.269531 171.339844 C 145.089844 166.492188 141.710938 161.613281 137.824219 160.828125 C 133.925781 160.03125 108.886719 162.855469 97.273438 164.375 C 95.019531 164.671875 95.019531 163.769531 97.445312 163.28125 C 97.367188 163.234375 97.292969 163.234375 97.210938 163.199219 C 108.992188 161.519531 124.285156 158.117188 132.957031 156.109375 C 149.476562 152.289062 158.148438 152.917969 159.675781 145.789062 C 161.210938 138.671875 156.046875 133.925781 151.179688 133.835938 C 144.796875 133.722656 112.03125 142.886719 96.390625 144.207031 C 95.855469 144.242188 95.769531 143.417969 96.527344 142.859375 C 97.152344 142.722656 97.785156 142.585938 98.453125 142.421875 C 98.660156 142.421875 98.761719 142.351562 99 142.378906 C 98.957031 142.351562 98.921875 142.347656 98.878906 142.316406 C 110.539062 139.429688 128.679688 132.765625 139.429688 129.976562 C 153.621094 126.28125 163.292969 126.394531 163.859375 119.125 C 164.425781 111.867188 158.730469 108.417969 153.878906 108.785156 C 149.144531 109.140625 109.589844 120.25 94.4375 122.140625 C 92.382812 119.800781 112.277344 117.015625 125.789062 111.351562 C 139.308594 105.691406 146.664062 104.4375 145.699219 97.21875 C 144.726562 89.996094 137.675781 89.128906 133.003906 90.5 C 128.34375 91.875 97.359375 102.460938 83.722656 106.863281 C 70.09375 111.277344 68.003906 108.066406 84.25 99.8125 C 91.816406 95.976562 98.484375 87.652344 88.371094 81.363281 C 84.335938 78.851562 76.414062 84.152344 62.855469 91.957031"/><path style="stroke:none;fill-rule:nonzero;fill:#9b5436;fill-opacity:1" d="M 89.765625 175.679688 C 90.609375 174.914062 90.789062 173.699219 90.664062 172.597656 C 90.511719 172.066406 90.351562 171.515625 90.039062 171.070312 C 89.75 170.605469 89.335938 170.226562 88.878906 169.929688 C 89.542969 172.003906 89.949219 173.523438 89.765625 175.679688"/><path style="stroke:none;fill-rule:nonzero;fill:#9b5436;fill-opacity:1" d="M 90.675781 158.347656 C 91.828125 157.320312 92.058594 155.660156 91.890625 154.167969 C 91.683594 153.445312 91.472656 152.710938 91.042969 152.097656 C 90.652344 151.46875 90.085938 150.96875 89.472656 150.574219 C 90.375 153.378906 90.917969 155.441406 90.675781 158.347656"/><path style="stroke:none;fill-rule:nonzero;fill:#9b5436;fill-opacity:1" d="M 84.839844 121.171875 C 85.550781 119.804688 85.203125 118.167969 84.527344 116.84375 C 84.085938 116.230469 83.628906 115.621094 83.007812 115.191406 C 82.417969 114.730469 81.71875 114.441406 81.007812 114.285156 C 82.832031 116.613281 84.058594 118.351562 84.839844 121.171875"/><path style="stroke:none;fill-rule:nonzero;fill:#9b5436;fill-opacity:1" d="M 88.574219 139.378906 C 89.726562 138.339844 89.964844 136.6875 89.785156 135.210938 C 89.589844 134.480469 89.375 133.742188 88.945312 133.132812 C 88.554688 132.5 87.992188 131.996094 87.371094 131.597656 C 88.273438 134.40625 88.820312 136.457031 88.574219 139.378906"/><path style="stroke:none;fill-rule:nonzero;fill:#e8edeb;fill-opacity:1" d="M 149.300781 113.171875 C 148.578125 113.378906 144.585938 115.3125 145.933594 120.140625 C 147.121094 124.417969 151.777344 124.371094 152.527344 124.15625 L 158.359375 122.488281 C 159.078125 122.285156 160.84375 121.152344 159.378906 116.425781 C 157.792969 111.304688 156.363281 111.558594 155.585938 111.78125 L 149.300781 113.171875"/><path style="stroke:none;fill-rule:nonzero;fill:#e8edeb;fill-opacity:1" d="M 81.285156 88.925781 C 80.625 89.320312 76.242188 90.460938 73.929688 86.691406 C 73.777344 86.453125 73.5 86.109375 73.378906 85.871094 C 78.804688 82.835938 84.445312 79.792969 85.328125 79.449219 C 88.316406 83.394531 88.082031 84.871094 86.351562 85.957031 L 81.285156 88.925781"/><path style="stroke:none;fill-rule:nonzero;fill:#e8edeb;fill-opacity:1" d="M 132.097656 94.382812 C 131.429688 94.664062 127.894531 96.898438 129.683594 101.273438 C 131.273438 105.148438 135.625 104.621094 136.316406 104.324219 L 141.605469 102.140625 C 142.246094 101.871094 143.789062 100.617188 141.882812 96.347656 C 139.835938 91.722656 138.53125 92.105469 137.824219 92.40625 L 132.097656 94.382812"/><path style="stroke:none;fill-rule:nonzero;fill:#e8edeb;fill-opacity:1" d="M 146.3125 139.164062 C 145.644531 139.339844 141.976562 140.914062 142.996094 145.3125 C 143.894531 149.207031 148.085938 149.355469 148.769531 149.191406 L 154.09375 147.921875 C 154.746094 147.765625 156.382812 146.816406 155.246094 142.503906 C 154.019531 137.824219 152.730469 138 152.023438 138.167969 L 146.3125 139.164062"/><path style="stroke:none;fill-rule:nonzero;fill:#e8edeb;fill-opacity:1" d="M 133.703125 164.636719 C 133.28125 164.753906 130.929688 165.761719 131.570312 168.59375 C 132.160156 171.089844 134.851562 171.191406 135.285156 171.078125 L 138.707031 170.265625 C 139.128906 170.167969 140.179688 169.558594 139.449219 166.789062 C 138.65625 163.785156 137.832031 163.890625 137.382812 164 L 133.703125 164.636719"/><path style="stroke:none;fill-rule:nonzero;fill:#b76440;fill-opacity:1" d="M 33.078125 126.242188 L 0.00390625 126.242188 L 0.00390625 175.292969 L 33.078125 175.292969 C 44.78125 175.292969 54.273438 164.308594 54.273438 150.765625 C 54.273438 137.21875 44.78125 126.242188 33.078125 126.242188"/><path style="stroke:none;fill-rule:nonzero;fill:#aa8676;fill-opacity:1" d="M 240.210938 167.046875 C 256.585938 157.636719 262.957031 154.828125 273.046875 143.15625 C 285.238281 129.035156 284.128906 117.546875 284.128906 117.546875 C 284.128906 117.546875 282.101562 93.472656 271.265625 85.488281 C 250.707031 70.328125 226.234375 76.1875 204.96875 78.972656 L 204.976562 78.984375 C 197.15625 79.90625 188.273438 81.386719 181.109375 82.683594 C 169.320312 84.800781 164.175781 84.640625 161.800781 87.652344 C 157.980469 92.507812 161.359375 97.386719 165.242188 98.167969 C 169.144531 98.960938 194.183594 96.140625 205.792969 94.621094 C 208.050781 94.328125 208.050781 95.234375 205.625 95.710938 C 205.699219 95.757812 205.777344 95.765625 205.851562 95.796875 C 194.074219 97.480469 178.785156 100.878906 170.113281 102.894531 C 153.59375 106.707031 144.921875 106.078125 143.390625 113.214844 C 141.855469 120.320312 147.027344 125.074219 151.890625 125.164062 C 158.269531 125.269531 191.035156 116.117188 206.675781 114.785156 C 207.214844 114.757812 207.292969 115.574219 206.542969 116.136719 C 205.917969 116.28125 205.28125 116.421875 204.613281 116.578125 C 204.410156 116.578125 204.304688 116.640625 204.066406 116.621094 C 204.109375 116.640625 204.148438 116.65625 204.191406 116.6875 C 192.53125 119.570312 174.390625 126.222656 163.640625 129.023438 C 149.445312 132.71875 139.773438 132.601562 139.207031 139.878906 C 138.644531 147.125 144.339844 150.585938 149.1875 150.210938 C 153.921875 149.859375 193.476562 138.742188 208.628906 136.859375 C 210.683594 139.191406 190.789062 141.976562 177.277344 147.648438 C 163.757812 153.308594 156.402344 154.558594 157.371094 161.785156 C 158.339844 168.996094 165.394531 169.875 170.0625 168.503906 C 174.722656 167.132812 205.707031 156.542969 219.347656 152.140625 C 232.972656 147.722656 235.066406 150.925781 218.820312 159.191406 C 211.246094 163.015625 204.585938 171.34375 214.699219 177.636719 C 218.730469 180.140625 226.652344 174.847656 240.210938 167.046875"/><path style="stroke:none;fill-rule:nonzero;fill:#8d6e60;fill-opacity:1" d="M 213.300781 83.324219 C 212.457031 84.085938 212.28125 85.308594 212.40625 86.398438 C 212.558594 86.933594 212.71875 87.484375 213.03125 87.933594 C 213.320312 88.390625 213.730469 88.777344 214.1875 89.066406 C 213.527344 87 213.117188 85.46875 213.300781 83.324219"/><path style="stroke:none;fill-rule:nonzero;fill:#8d6e60;fill-opacity:1" d="M 212.386719 100.652344 C 211.242188 101.683594 211.007812 103.34375 211.179688 104.820312 C 211.386719 105.550781 211.59375 106.277344 212.023438 106.890625 C 212.414062 107.53125 212.984375 108.039062 213.59375 108.421875 C 212.699219 105.613281 212.148438 103.554688 212.386719 100.652344"/><path style="stroke:none;fill-rule:nonzero;fill:#8d6e60;fill-opacity:1" d="M 218.230469 137.832031 C 217.519531 139.191406 217.867188 140.832031 218.535156 142.160156 C 218.980469 142.761719 219.441406 143.382812 220.058594 143.8125 C 220.648438 144.269531 221.351562 144.550781 222.0625 144.710938 C 220.234375 142.386719 219.011719 140.636719 218.230469 137.832031"/><path style="stroke:none;fill-rule:nonzero;fill:#8d6e60;fill-opacity:1" d="M 214.496094 119.625 C 213.34375 120.664062 213.105469 122.3125 213.28125 123.789062 C 213.480469 124.519531 213.691406 125.25 214.125 125.859375 C 214.515625 126.503906 215.078125 127.007812 215.691406 127.402344 C 214.796875 124.597656 214.242188 122.539062 214.496094 119.625"/><path style="stroke:none;fill-rule:nonzero;fill:#dbe2db;fill-opacity:1" d="M 153.765625 145.828125 C 154.492188 145.613281 158.488281 143.679688 157.136719 138.851562 C 155.941406 134.585938 151.292969 134.628906 150.542969 134.839844 L 144.707031 136.5 C 143.992188 136.71875 142.226562 137.851562 143.6875 142.566406 C 145.277344 147.691406 146.703125 147.433594 147.480469 147.21875 L 153.765625 145.828125"/><path style="stroke:none;fill-rule:nonzero;fill:#dbe2db;fill-opacity:1" d="M 221.78125 170.066406 C 222.445312 169.671875 226.824219 168.53125 229.140625 172.296875 C 229.289062 172.546875 229.570312 172.886719 229.6875 173.136719 C 224.261719 176.167969 218.617188 179.210938 217.746094 179.550781 C 214.75 175.609375 214.980469 174.121094 216.714844 173.046875 L 221.78125 170.066406"/><path style="stroke:none;fill-rule:nonzero;fill:#dbe2db;fill-opacity:1" d="M 170.972656 164.613281 C 171.640625 164.335938 175.175781 162.105469 173.382812 157.722656 C 171.796875 153.84375 167.441406 154.378906 166.753906 154.667969 L 161.464844 156.863281 C 160.820312 157.132812 159.285156 158.386719 161.1875 162.652344 C 163.230469 167.285156 164.542969 166.894531 165.242188 166.59375 L 170.972656 164.613281"/><path style="stroke:none;fill-rule:nonzero;fill:#dbe2db;fill-opacity:1" d="M 156.753906 119.828125 C 157.425781 119.664062 161.09375 118.089844 160.070312 113.683594 C 159.175781 109.792969 154.984375 109.644531 154.300781 109.808594 L 148.972656 111.070312 C 148.324219 111.230469 146.6875 112.183594 147.820312 116.492188 C 149.046875 121.164062 150.335938 120.992188 151.042969 120.824219 L 156.753906 119.828125"/><path style="stroke:none;fill-rule:nonzero;fill:#dbe2db;fill-opacity:1" d="M 169.363281 94.363281 C 169.785156 94.242188 172.140625 93.238281 171.496094 90.394531 C 170.910156 87.914062 168.21875 87.816406 167.78125 87.921875 L 164.363281 88.726562 C 163.9375 88.832031 162.890625 89.441406 163.617188 92.207031 C 164.414062 95.207031 165.238281 95.101562 165.679688 94.996094 L 169.363281 94.363281"/><g clip-path="url(#clip5)" clip-rule="nonzero"><path style="stroke:none;fill-rule:nonzero;fill:#aa8676;fill-opacity:1" d="M 300 87.972656 L 269.992188 87.972656 C 258.28125 87.972656 248.792969 98.949219 248.792969 112.496094 C 248.792969 126.042969 258.28125 137.015625 269.992188 137.015625 L 300 137.015625 L 300 87.972656"/></g></g></svg>