<svg xmlns="http://www.w3.org/2000/svg" xmlns:xlink="http://www.w3.org/1999/xlink" width="400" height="400" version="1.2" viewBox="0 0 300 300"><g id="surface1"><path style="stroke:none;fill-rule:nonzero;fill:#b2e6f4;fill-opacity:1" d="M 139.292969 184.796875 C 109.398438 184.796875 85.171875 160.5625 85.171875 130.671875 C 85.171875 100.785156 109.398438 76.550781 139.292969 76.550781 C 169.183594 76.550781 193.417969 100.785156 193.417969 130.671875 C 193.417969 160.5625 169.183594 184.796875 139.292969 184.796875 Z M 214.515625 140.558594 L 236.304688 139.75 L 235.363281 114.445312 L 213.601562 115.25 C 212.691406 110.839844 211.382812 106.574219 209.746094 102.480469 L 228.335938 91.125 L 215.140625 69.515625 L 196.527344 80.882812 C 193.609375 77.527344 190.402344 74.425781 186.9375 71.625 L 197.597656 52.613281 L 175.515625 40.222656 L 164.863281 59.214844 C 160.714844 57.734375 156.398438 56.605469 151.953125 55.859375 L 151.953125 34.066406 L 126.632812 34.066406 L 126.632812 55.859375 C 120.289062 56.925781 114.214844 58.777344 108.511719 61.3125 L 96.472656 43.152344 L 75.367188 57.140625 L 87.414062 75.320312 C 84.167969 78.359375 81.179688 81.671875 78.507812 85.238281 L 59.128906 75.292969 L 47.566406 97.820312 L 66.9375 107.765625 C 65.613281 111.960938 64.652344 116.3125 64.074219 120.789062 L 42.285156 121.597656 L 43.21875 146.902344 L 64.984375 146.097656 C 65.890625 150.507812 67.199219 154.769531 68.839844 158.863281 L 50.246094 170.222656 L 63.445312 191.832031 L 82.054688 180.46875 C 84.980469 183.824219 88.183594 186.917969 91.648438 189.722656 L 80.980469 208.734375 L 103.066406 221.121094 L 113.71875 202.125 C 117.871094 203.613281 122.183594 204.738281 126.632812 205.480469 L 126.632812 227.277344 L 151.953125 227.277344 L 151.953125 205.480469 C 158.296875 204.417969 164.367188 202.566406 170.074219 200.03125 L 182.109375 218.191406 L 203.21875 204.207031 L 191.171875 186.027344 C 194.417969 182.984375 197.40625 179.671875 200.078125 176.105469 L 219.457031 186.054688 L 231.019531 163.523438 L 211.648438 153.585938 C 212.976562 149.386719 213.933594 145.03125 214.515625 140.558594"/><path style="stroke:none;fill-rule:nonzero;fill:#8ad9f2;fill-opacity:1" d="M 152.238281 184.796875 C 122.347656 184.796875 98.113281 160.5625 98.113281 130.671875 C 98.113281 100.785156 122.347656 76.550781 152.238281 76.550781 C 182.128906 76.550781 206.355469 100.785156 206.355469 130.671875 C 206.355469 160.5625 182.128906 184.796875 152.238281 184.796875 Z M 227.457031 140.558594 L 249.242188 139.75 L 248.3125 114.445312 L 226.550781 115.25 C 225.636719 110.839844 224.328125 106.574219 222.691406 102.480469 L 241.285156 91.125 L 228.085938 69.515625 L 209.472656 80.882812 C 206.546875 77.527344 203.34375 74.425781 199.882812 71.625 L 210.546875 52.613281 L 188.457031 40.222656 L 177.808594 59.214844 C 173.660156 57.734375 169.34375 56.605469 164.898438 55.859375 L 164.898438 34.066406 L 139.578125 34.066406 L 139.578125 55.859375 C 133.230469 56.925781 127.164062 58.777344 121.457031 61.3125 L 109.421875 43.152344 L 88.3125 57.140625 L 100.359375 75.320312 C 97.113281 78.359375 94.125 81.671875 91.453125 85.238281 L 72.074219 75.292969 L 60.511719 97.820312 L 79.878906 107.765625 C 78.554688 111.960938 77.597656 116.3125 77.015625 120.789062 L 55.226562 121.597656 L 56.167969 146.902344 L 77.925781 146.097656 C 78.835938 150.507812 80.144531 154.769531 81.785156 158.863281 L 63.191406 170.222656 L 76.390625 191.832031 L 95 180.46875 C 97.921875 183.824219 101.128906 186.917969 104.59375 189.722656 L 93.929688 208.734375 L 116.011719 221.121094 L 126.667969 202.125 C 130.816406 203.613281 135.128906 204.738281 139.578125 205.480469 L 139.578125 227.277344 L 164.898438 227.277344 L 164.898438 205.480469 C 171.242188 204.417969 177.3125 202.566406 183.015625 200.03125 L 195.054688 218.191406 L 216.164062 204.207031 L 204.117188 186.027344 C 207.363281 182.984375 210.351562 179.671875 213.019531 176.105469 L 232.402344 186.054688 L 243.964844 163.523438 L 224.59375 153.585938 C 225.917969 149.386719 226.875 145.03125 227.457031 140.558594"/><path style="stroke:none;fill-rule:nonzero;fill:#4fa1be;fill-opacity:1" d="M 100.359375 75.320312 L 88.3125 57.140625 L 75.367188 57.140625 L 87.414062 75.320312 L 100.359375 75.320312"/><path style="stroke:none;fill-rule:nonzero;fill:#c9edf5;fill-opacity:1" d="M 88.3125 57.140625 L 109.421875 43.152344 L 96.472656 43.152344 L 75.367188 57.140625 L 88.3125 57.140625"/><path style="stroke:none;fill-rule:nonzero;fill:#4fa1be;fill-opacity:1" d="M 47.566406 97.820312 L 60.511719 97.820312 L 79.878906 107.765625 L 66.9375 107.765625 L 47.566406 97.820312"/><path style="stroke:none;fill-rule:nonzero;fill:#c9edf5;fill-opacity:1" d="M 47.566406 97.820312 L 60.511719 97.820312 L 72.074219 75.292969 L 59.128906 75.292969 L 47.566406 97.820312"/><path style="stroke:none;fill-rule:nonzero;fill:#4fa1be;fill-opacity:1" d="M 139.578125 55.859375 L 139.578125 34.066406 L 126.632812 34.066406 L 126.632812 55.859375 L 139.578125 55.859375"/><path style="stroke:none;fill-rule:nonzero;fill:#4fa1be;fill-opacity:1" d="M 76.390625 191.832031 L 63.191406 170.222656 L 50.246094 170.222656 L 63.445312 191.832031 L 76.390625 191.832031"/><path style="stroke:none;fill-rule:nonzero;fill:#4fa1be;fill-opacity:1" d="M 56.167969 146.902344 L 43.21875 146.902344 L 42.285156 121.597656 L 55.226562 121.597656 L 56.167969 146.902344"/><path style="stroke:none;fill-rule:nonzero;fill:#4fa1be;fill-opacity:1" d="M 80.980469 208.734375 L 93.929688 208.734375 L 104.59375 189.722656 L 91.648438 189.722656 L 80.980469 208.734375"/><path style="stroke:none;fill-rule:nonzero;fill:#3c7891;fill-opacity:1" d="M 116.011719 221.121094 L 93.929688 208.734375 L 80.980469 208.734375 L 103.066406 221.121094 L 116.011719 221.121094"/><path style="stroke:none;fill-rule:nonzero;fill:#3c7891;fill-opacity:1" d="M 195.054688 218.191406 L 183.015625 200.03125 C 183.015625 200.03125 179.519531 201.757812 171.597656 204.042969 L 182.109375 218.191406 L 195.054688 218.191406"/><path style="stroke:none;fill-rule:nonzero;fill:#3c7891;fill-opacity:1" d="M 209.207031 180.789062 C 209.207031 180.789062 212.496094 177.324219 213.019531 176.105469 L 232.402344 186.054688 L 219.457031 186.054688 L 209.207031 180.789062"/><path style="stroke:none;fill-rule:nonzero;fill:#3c7891;fill-opacity:1" d="M 248.3125 114.445312 L 226.550781 115.25 L 226.449219 114.777344 L 237.136719 114.179688 L 248.3125 114.445312"/><path style="stroke:none;fill-rule:nonzero;fill:#3c7891;fill-opacity:1" d="M 204.460938 75.644531 C 204.460938 75.644531 208.203125 79.570312 209.472656 80.882812 L 228.085938 69.515625 L 215.140625 69.515625 L 204.460938 75.644531"/><path style="stroke:none;fill-rule:nonzero;fill:#3c7891;fill-opacity:1" d="M 177.808594 59.214844 L 188.457031 40.222656 L 175.515625 40.222656 L 166.578125 56.160156 L 177.808594 59.214844"/><path style="stroke:none;fill-rule:nonzero;fill:#266d68;fill-opacity:1" d="M 200.953125 134.394531 C 200.953125 134.394531 207.832031 127.097656 212.070312 130.390625 C 218.527344 135.40625 216.351562 155.289062 199.589844 169.167969 C 191.867188 175.5625 175.535156 154.449219 172.828125 146.074219 C 172.828125 146.074219 170.277344 137.710938 178.925781 141.636719 C 188.707031 146.082031 196.59375 153.734375 196.097656 153.429688 C 194.675781 152.554688 193.242188 143.601562 200.953125 134.394531"/><path style="stroke:none;fill-rule:nonzero;fill:#e66f64;fill-opacity:1" d="M 174.722656 140.785156 C 174.722656 140.785156 171.058594 138.585938 166.625 140.25 C 162.195312 141.914062 165.902344 142.054688 176.4375 142.972656 L 174.722656 140.785156"/><path style="stroke:none;fill-rule:nonzero;fill:#e66f64;fill-opacity:1" d="M 174.722656 140.785156 C 174.722656 140.785156 172.179688 140.867188 168.117188 141.710938 C 164.050781 142.554688 163.832031 142.75 161.285156 143.570312 C 159.527344 144.140625 161.3125 144.660156 161.398438 144.734375 C 161.453125 144.78125 161.140625 144.714844 161.285156 145.175781 C 161.378906 145.464844 161.9375 146.054688 162.332031 146.277344 C 162.578125 146.417969 163.335938 147.222656 163.710938 147.433594 C 165.523438 148.4375 167.792969 150.308594 175.550781 148.425781 C 175.550781 148.425781 179.183594 142.683594 174.722656 140.785156"/><path style="stroke:none;fill-rule:nonzero;fill:#26285d;fill-opacity:1" d="M 200.582031 175.894531 C 200.582031 175.894531 194.941406 218.195312 193.742188 238.285156 C 193.742188 238.285156 207.269531 239.082031 209.460938 234.828125 C 211.652344 230.570312 218.34375 181.683594 218.34375 181.683594 L 200.582031 175.894531"/><path style="stroke:none;fill-rule:nonzero;fill:#26285d;fill-opacity:1" d="M 223.28125 279.835938 C 223.28125 279.835938 224.246094 279.929688 224.359375 280.195312 C 224.472656 280.457031 226.261719 283.882812 226.292969 284.589844 C 226.332031 285.296875 215.816406 290.71875 215.816406 290.71875 C 215.816406 290.71875 210.164062 292.585938 209.308594 292.089844 C 208.449219 291.59375 208.492188 290.960938 208.789062 290.746094 C 209.085938 290.527344 220.015625 280.734375 220.015625 280.734375 L 223.28125 279.835938"/><path style="stroke:none;fill-rule:nonzero;fill:#26285d;fill-opacity:1" d="M 228.914062 292.511719 C 228.914062 292.511719 229.785156 292.941406 229.792969 293.230469 C 229.800781 293.515625 230.246094 297.351562 230.027344 298.027344 C 229.800781 298.695312 218.042969 299.996094 218.042969 299.996094 C 218.042969 299.996094 212.097656 299.707031 211.476562 298.9375 C 210.855469 298.167969 211.121094 297.59375 211.476562 297.496094 C 211.832031 297.402344 225.542969 292.171875 225.542969 292.171875 L 228.914062 292.511719"/><path style="stroke:none;fill-rule:nonzero;fill:#f68c82;fill-opacity:1" d="M 228.710938 287.054688 C 228.710938 287.054688 228.851562 292.964844 228.820312 293.074219 C 228.539062 293.972656 226.003906 294.023438 225.25 293.34375 L 223.769531 287.65625 L 228.710938 287.054688"/><path style="stroke:none;fill-rule:nonzero;fill:#f68c82;fill-opacity:1" d="M 221.769531 275.171875 C 221.769531 275.171875 223.964844 280.617188 223.976562 280.773438 C 224.054688 281.707031 221.835938 282.742188 220.890625 282.363281 L 217.746094 277.246094 L 221.769531 275.171875"/><path style="stroke:none;fill-rule:nonzero;fill:#26285d;fill-opacity:1" d="M 201.214844 226.722656 C 201.214844 226.722656 206.078125 227.539062 207.089844 228.8125 C 208.101562 230.082031 220.414062 267.007812 223.984375 277.210938 C 223.984375 277.210938 220.027344 280.699219 217.816406 279.371094 C 214.421875 277.328125 193.972656 238.507812 193.972656 238.507812 L 201.214844 226.722656"/><path style="stroke:none;fill-rule:nonzero;fill:#2e3192;fill-opacity:1" d="M 216.570312 180.953125 C 216.421875 183.113281 200.761719 179.972656 200.613281 182.183594 C 200.078125 190.46875 213.320312 213.617188 213.296875 213.917969 C 218.4375 249.617188 221.898438 282.019531 223.808594 289.539062 C 224.597656 292.664062 229.949219 289.65625 229.949219 289.65625 C 231.085938 249.078125 231.859375 184.308594 231.859375 184.308594 C 227.832031 181.636719 222.039062 180.898438 216.570312 180.953125"/><path style="stroke:none;fill-rule:nonzero;fill:#36ab9c;fill-opacity:1" d="M 214.273438 128.210938 C 214.273438 128.210938 226.34375 126.9375 228.535156 132.5625 C 228.535156 132.5625 233.972656 152.054688 231.859375 184.308594 C 231.859375 184.308594 210.410156 195.042969 198.199219 183.300781 C 198.199219 183.300781 192.375 158.523438 200.601562 138.226562 C 200.601562 138.226562 207.078125 128.175781 214.273438 128.210938"/><path style="stroke:none;fill-rule:nonzero;fill:#fff;fill-opacity:1" d="M 221.902344 129.167969 C 221.902344 129.167969 209.285156 136.328125 205.773438 142.765625 C 205.773438 142.765625 207.382812 132.0625 210.9375 129.515625 L 221.902344 129.167969"/><path style="stroke:none;fill-rule:nonzero;fill:#e66f64;fill-opacity:1" d="M 222.855469 117.34375 C 222.855469 117.34375 221.902344 125.484375 221.902344 128.773438 C 221.902344 129.835938 214.300781 131.847656 211.203125 129.871094 C 210.535156 129.449219 210.589844 120.390625 210.589844 120.390625 L 222.855469 117.34375"/><path style="stroke:none;fill-rule:nonzero;fill:#f68c82;fill-opacity:1" d="M 218.660156 96.519531 C 218.660156 96.519531 208.035156 91.652344 201.082031 98.421875 C 201.082031 98.421875 201.644531 103.09375 201.5 109.667969 C 201.328125 117.710938 202.90625 124.027344 205.851562 124.347656 C 205.851562 124.347656 219.199219 126.28125 221.070312 116.933594 C 222.746094 108.519531 221.863281 98.679688 218.660156 96.519531"/><path style="stroke:none;fill-rule:nonzero;fill:#2e3192;fill-opacity:1" d="M 217.070312 109.304688 C 217.070312 109.304688 217.738281 102.476562 210.105469 101.027344 C 202.472656 99.578125 202.988281 103.054688 197.648438 99.773438 C 193.203125 97.042969 199.277344 96.953125 199.277344 96.953125 C 199.277344 96.953125 196.253906 91.871094 197.988281 92.449219 C 199.726562 93.027344 222.335938 88.625 225.792969 94.824219 C 230.4375 103.175781 223.402344 116.484375 222.210938 118.21875 C 221.019531 119.957031 217.070312 109.304688 217.070312 109.304688"/><path style="stroke:none;fill-rule:nonzero;fill:#f68c82;fill-opacity:1" d="M 218.3125 113.582031 C 217.527344 116.347656 218.167969 118.957031 219.734375 119.402344 C 221.308594 119.847656 223.21875 117.957031 224.003906 115.1875 C 224.785156 112.417969 224.144531 109.816406 222.574219 109.367188 C 221.457031 109.050781 220.171875 109.910156 219.238281 111.425781 C 218.859375 112.046875 218.539062 112.777344 218.3125 113.582031"/><path style="stroke:none;fill-rule:nonzero;fill:#f68c82;fill-opacity:1" d="M 216.589844 198.933594 C 216.589844 198.933594 213.742188 200.476562 212.839844 204.09375 C 211.945312 207.710938 214.246094 204.441406 219.632812 198.480469 L 216.589844 198.933594"/><path style="stroke:none;fill-rule:nonzero;fill:#f68c82;fill-opacity:1" d="M 216.867188 199.417969 C 216.867188 199.417969 215.773438 201.019531 214.492188 203.96875 C 213.214844 206.921875 213.242188 207.160156 212.636719 209.167969 C 212.21875 210.554688 213.378906 209.742188 213.464844 209.722656 C 213.519531 209.714844 213.335938 209.875 213.710938 210.035156 C 213.941406 210.132812 214.59375 210.109375 214.917969 209.992188 C 215.125 209.914062 215.839844 209.636719 216.152344 209.515625 C 217.648438 208.953125 220.460938 207.933594 222.722656 202.15625 C 222.722656 202.15625 220.160156 197.707031 216.867188 199.417969"/><path style="stroke:none;fill-rule:nonzero;fill:#36ab9c;fill-opacity:1" d="M 218.074219 138.8125 C 218.074219 138.8125 220.738281 128.65625 226.023438 129.601562 C 237.957031 131.71875 247.984375 166.867188 223.644531 202.648438 C 223.644531 202.648438 215.914062 202.519531 216.613281 198.050781 C 217.78125 190.53125 221.492188 184.15625 220.628906 169.492188 C 220.238281 162.753906 215.566406 151.136719 218.074219 138.8125"/><path style="stroke:none;fill-rule:nonzero;fill:#1eb289;fill-opacity:1" d="M 193.519531 88.890625 C 193.519531 88.890625 187.320312 84.945312 181.25 77.058594 C 181.25 77.058594 153.621094 76.449219 144.371094 71.898438 C 135.121094 67.34375 134.570312 14.234375 140.941406 9.683594 C 154.546875 -0.0273438 237.394531 -0.0273438 244.074219 9.078125 C 250.746094 18.175781 257.726562 58.84375 240.128906 69.46875 C 222.523438 80.089844 193.519531 76.753906 193.519531 76.753906 L 193.519531 88.890625"/><path style="stroke:none;fill-rule:nonzero;fill:#2e3192;fill-opacity:1" d="M 88.101562 118.394531 C 88.101562 118.394531 87.164062 121.832031 84.140625 120.875 C 81.121094 119.917969 80.949219 117.324219 80.949219 117.324219 C 80.949219 117.324219 78.078125 117.609375 76.839844 115.917969 C 75.597656 114.226562 75.171875 110.738281 78.023438 110.171875 C 80.867188 109.605469 83.257812 111.847656 83.257812 111.847656 L 88.101562 118.394531"/><path style="stroke:none;fill-rule:nonzero;fill:#26285d;fill-opacity:1" d="M 94.75 286.738281 C 94.75 286.738281 93.890625 287.164062 93.882812 287.449219 C 93.878906 287.734375 93.4375 291.519531 93.65625 292.179688 C 93.878906 292.84375 105.46875 294.121094 105.46875 294.121094 C 105.46875 294.121094 111.335938 293.832031 111.945312 293.078125 C 112.558594 292.320312 112.300781 291.753906 111.945312 291.660156 C 111.597656 291.5625 98.074219 286.40625 98.074219 286.40625 L 94.75 286.738281"/><path style="stroke:none;fill-rule:nonzero;fill:#26285d;fill-opacity:1" d="M 81.363281 289.476562 C 81.363281 289.476562 80.507812 289.902344 80.5 290.183594 C 80.488281 290.472656 80.050781 294.257812 80.269531 294.917969 C 80.488281 295.582031 92.082031 296.859375 92.082031 296.859375 C 92.082031 296.859375 97.949219 296.574219 98.5625 295.820312 C 99.175781 295.058594 98.910156 294.492188 98.5625 294.402344 C 98.210938 294.304688 84.691406 289.144531 84.691406 289.144531 L 81.363281 289.476562"/><path style="stroke:none;fill-rule:nonzero;fill:#e66f64;fill-opacity:1" d="M 108.84375 182.492188 C 108.84375 182.492188 106.542969 183.855469 105.984375 186.769531 C 105.414062 189.6875 107.167969 186.980469 111.355469 181.984375 L 108.84375 182.492188"/><path style="stroke:none;fill-rule:nonzero;fill:#e66f64;fill-opacity:1" d="M 109.113281 182.46875 C 109.113281 182.46875 108.28125 183.792969 107.367188 186.199219 C 106.453125 188.605469 106.488281 188.792969 106.085938 190.410156 C 105.804688 191.535156 106.730469 190.832031 106.804688 190.816406 C 106.847656 190.808594 106.703125 190.941406 107.023438 191.050781 C 107.222656 191.117188 107.761719 191.070312 108.027344 190.957031 C 108.195312 190.886719 108.773438 190.632812 109.03125 190.523438 C 110.246094 190.003906 112.539062 189.054688 114.128906 184.359375 C 114.128906 184.359375 111.773438 180.949219 109.113281 182.46875"/><path style="stroke:none;fill-rule:nonzero;fill:#f68c82;fill-opacity:1" d="M 81.570312 284.101562 C 81.570312 284.101562 81.425781 289.929688 81.460938 290.035156 C 81.730469 290.917969 84.238281 290.972656 84.980469 290.304688 L 86.441406 284.695312 L 81.570312 284.101562"/><path style="stroke:none;fill-rule:nonzero;fill:#f68c82;fill-opacity:1" d="M 94.492188 281.910156 C 94.492188 281.910156 94.394531 287.699219 94.4375 287.847656 C 94.699219 288.734375 97.105469 288.902344 97.847656 288.222656 L 98.933594 282.398438 L 94.492188 281.910156"/><path style="stroke:none;fill-rule:nonzero;fill:#26285d;fill-opacity:1" d="M 104.765625 147.050781 C 104.765625 147.050781 103.628906 126.992188 106.964844 129.894531 C 110.308594 132.792969 126.347656 160.695312 113.394531 186.667969 C 113.394531 186.667969 107.332031 189.851562 109.445312 180.765625 C 111.570312 171.675781 113.632812 157.1875 104.765625 147.050781"/><path style="stroke:none;fill-rule:nonzero;fill:#0b0b23;fill-opacity:1" d="M 110.003906 177.71875 C 110.003906 177.71875 108.144531 219.734375 106.117188 239.417969 C 106.117188 239.417969 95.535156 237.703125 94.464844 233.175781 C 93.394531 228.648438 95.414062 180.050781 95.414062 180.050781 L 110.003906 177.71875"/><path style="stroke:none;fill-rule:nonzero;fill:#151643;fill-opacity:1" d="M 93.535156 179.46875 C 93.683594 181.601562 109.128906 178.503906 109.273438 180.683594 C 109.796875 188.851562 96.746094 211.679688 96.769531 211.980469 C 91.691406 247.183594 88.289062 279.136719 86.402344 286.546875 C 85.617188 289.632812 80.347656 286.664062 80.347656 286.664062 C 79.222656 246.648438 78.464844 182.777344 78.464844 182.777344 C 82.4375 180.144531 88.144531 179.414062 93.535156 179.46875"/><path style="stroke:none;fill-rule:nonzero;fill:#2e3192;fill-opacity:1" d="M 94.507812 127.023438 C 94.507812 127.023438 82.371094 126.3125 75.609375 132.222656 C 75.609375 132.222656 67.707031 167.523438 78.464844 182.621094 C 78.464844 182.621094 98.453125 192.363281 110.171875 181.097656 C 110.171875 181.097656 114.242188 143.3125 107.59375 130.824219 C 107.59375 130.824219 107.003906 127.308594 94.507812 127.023438"/><path style="stroke:none;fill-rule:nonzero;fill:#e66f64;fill-opacity:1" d="M 84.140625 115.109375 C 84.140625 115.109375 86.410156 123.925781 86.726562 128.984375 C 86.726562 128.984375 90.722656 132.558594 94.179688 129.246094 C 94.179688 129.246094 95.519531 116.003906 98.335938 113.972656 C 101.152344 111.941406 84.140625 115.109375 84.140625 115.109375"/><path style="stroke:none;fill-rule:nonzero;fill:#f68c82;fill-opacity:1" d="M 84.679688 96.664062 C 84.679688 96.664062 98.023438 92.539062 104.113281 98.46875 C 104.113281 98.46875 103.050781 105.945312 102.402344 111.671875 C 101.757812 117.390625 100.390625 122.808594 96.15625 123.105469 C 96.15625 123.105469 84.203125 122.726562 82.574219 114.542969 C 81.097656 107.175781 81.871094 98.554688 84.679688 96.664062"/><path style="stroke:none;fill-rule:nonzero;fill:#f68c82;fill-opacity:1" d="M 84.539062 112.171875 C 85.222656 114.597656 84.664062 116.878906 83.28125 117.269531 C 81.910156 117.65625 80.238281 116.007812 79.550781 113.578125 C 78.867188 111.152344 79.425781 108.871094 80.800781 108.484375 C 82.179688 108.09375 83.851562 109.742188 84.539062 112.171875"/><path style="stroke:none;fill-rule:nonzero;fill:#f68c82;fill-opacity:1" d="M 82.792969 196.351562 C 82.792969 196.351562 85.445312 197.957031 86.097656 201.398438 C 86.75 204.84375 84.730469 201.644531 79.894531 195.75 L 82.792969 196.351562"/><path style="stroke:none;fill-rule:nonzero;fill:#f68c82;fill-opacity:1" d="M 82.503906 196.789062 C 82.503906 196.789062 83.460938 198.355469 84.515625 201.191406 C 85.570312 204.027344 85.53125 204.253906 86 206.160156 C 86.320312 207.492188 85.25 206.65625 85.171875 206.640625 C 85.117188 206.632812 85.285156 206.789062 84.914062 206.917969 C 84.6875 206.996094 84.058594 206.9375 83.753906 206.808594 C 83.5625 206.726562 82.890625 206.421875 82.601562 206.292969 C 81.195312 205.675781 78.550781 204.558594 76.714844 199.019531 C 76.714844 199.019531 79.4375 195 82.503906 196.789062"/><path style="stroke:none;fill-rule:nonzero;fill:#2e3192;fill-opacity:1" d="M 84.886719 139.933594 C 84.886719 139.933594 82.917969 130.265625 77.785156 130.847656 C 66.199219 132.15625 60.277344 168.347656 75.800781 199.429688 C 75.800781 199.429688 83.238281 199.75 82.828125 195.523438 C 82.140625 188.410156 80.4375 169.066406 80.636719 168.535156 C 82.289062 164.054688 86.574219 151.625 84.886719 139.933594"/><path style="stroke:none;fill-rule:nonzero;fill:#0b0b23;fill-opacity:1" d="M 97.667969 230.8125 C 97.667969 230.8125 94.878906 230.335938 94.460938 231.847656 C 94.035156 233.363281 93.878906 274.5625 93.878906 285.222656 C 93.878906 285.222656 97.722656 287.175781 99.019531 285.222656 C 101.015625 282.214844 106.117188 239.417969 106.117188 239.417969 L 97.667969 230.8125"/><path style="stroke:none;fill-rule:nonzero;fill:#2e3192;fill-opacity:1" d="M 108.964844 88.5 C 108.964844 88.5 102.34375 81.835938 94.039062 87.433594 C 94.039062 87.433594 88.730469 85.191406 85 87.207031 C 85 87.207031 78.53125 87.433594 78.035156 91.394531 C 78.035156 91.394531 72.894531 93.210938 75.757812 98.1875 C 75.757812 98.1875 71.566406 103.699219 75.613281 107.679688 C 75.613281 107.679688 73.605469 109.601562 77.160156 111.457031 C 77.160156 111.457031 77.898438 111.65625 78.648438 111.824219 C 79.089844 111.925781 80.464844 110.53125 81.511719 109.378906 C 81.894531 109.613281 82.363281 109.925781 82.628906 110.195312 C 83.292969 113.054688 84.359375 116.984375 85.273438 117.324219 C 86.722656 117.863281 86.996094 117.324219 86.996094 117.324219 C 86.996094 117.324219 85.398438 106.527344 88.484375 102.128906 C 88.664062 101.980469 88.847656 101.835938 89.03125 101.691406 C 91.71875 102.117188 96.542969 102.535156 100.289062 100.953125 C 100.589844 101.640625 101.179688 102.585938 102.332031 103.214844 C 102.332031 103.214844 111.78125 102.53125 109.101562 95.320312 C 109.101562 95.320312 111.71875 90.472656 108.964844 88.5"/></g></svg>